<?xml version="1.0" encoding="UTF-8"?>
<svg version="1.1" xmlns="http://www.w3.org/2000/svg" width="1600" height="1600">
<path d="M0 0 C528 0 1056 0 1600 0 C1600 528 1600 1056 1600 1600 C1072 1600 544 1600 0 1600 C0 1072 0 544 0 0 Z " fill="#FEFEFE" transform="translate(0,0)"/>
<path d="M0 0 C135.34125 -0.0825 270.6825 -0.165 410.125 -0.25 C474.24321045 -0.30462402 474.24321045 -0.30462402 539.65673828 -0.36035156 C591.82592773 -0.37841797 591.82592773 -0.37841797 616.24313354 -0.3817749 C634.43126615 -0.38574907 652.61933904 -0.40298056 670.80745491 -0.42669371 C689.37539488 -0.45057353 707.94329737 -0.45933095 726.5112521 -0.4537798 C737.53580092 -0.45092132 748.56020971 -0.4587535 759.58473247 -0.48323038 C766.88529381 -0.49833152 774.18576313 -0.49860927 781.48633104 -0.48734136 C785.63087048 -0.48135251 789.775143 -0.48130116 793.9196527 -0.49953032 C856.38308485 -0.75786551 916.77616774 14.8513345 972 44 C972.84949219 44.44601563 973.69898438 44.89203125 974.57421875 45.3515625 C985.82759563 51.28775849 996.75733279 57.44350542 1007.18603516 64.73925781 C1009.10459081 66.07269272 1011.04020909 67.37805955 1012.98046875 68.6796875 C1029.4759454 79.78928927 1044.79973836 92.33800195 1059.48828125 105.734375 C1060.89894538 107.00682476 1062.31614699 108.27239647 1063.75537109 109.51245117 C1069.04945423 114.07557129 1074.0565283 118.87331207 1079 123.8125 C1079.77472656 124.57498047 1080.54945312 125.33746094 1081.34765625 126.12304688 C1082.07855469 126.85201172 1082.80945312 127.58097656 1083.5625 128.33203125 C1084.22378906 128.98921143 1084.88507813 129.6463916 1085.56640625 130.32348633 C1087 132 1087 132 1087 134 C1087.66 134 1088.32 134 1089 134 C1090.3046875 135.2578125 1090.3046875 135.2578125 1091.875 137.125 C1092.49890625 137.86105469 1093.1228125 138.59710938 1093.765625 139.35546875 C1094.87164063 140.66451172 1094.87164063 140.66451172 1096 142 C1096.8889496 143.01839196 1097.77968009 144.03523124 1098.671875 145.05078125 C1106.54476599 154.05102667 1113.8583204 163.41259793 1121 173 C1121.5377002 173.71671875 1122.07540039 174.4334375 1122.62939453 175.171875 C1139.04254797 197.11527942 1153.51692284 220.64558082 1164 246 C1164.42667969 247.0003125 1164.85335938 248.000625 1165.29296875 249.03125 C1166.55722158 252.0098133 1167.78193858 255.00225603 1169 258 C1169.25749023 258.6197168 1169.51498047 259.23943359 1169.78027344 259.87792969 C1189.42616748 307.30774856 1196.44730633 359.40134812 1196.4375 410.4375 C1196.4385675 411.63545197 1196.43963501 412.83340393 1196.44073486 414.06765747 C1196.39461171 450.40042048 1192.62275695 486.47055388 1185 522 C1184.78875488 522.98661621 1184.57750977 523.97323242 1184.35986328 524.98974609 C1183.23347983 530.1424285 1182.00426795 535.26099812 1180.68164062 540.36669922 C1180.20174209 542.22063387 1179.72980982 544.07663978 1179.26367188 545.93408203 C1168.78789857 587.62057092 1153.04558178 628.94491551 1133 667 C1132.56026855 667.84224121 1132.12053711 668.68448242 1131.66748047 669.55224609 C1124.76287348 682.72786083 1117.35950549 695.54987137 1109.58032227 708.22363281 C1104.44697274 716.58902229 1099.43916904 725.01864044 1094.5 733.5 C1086.81355588 746.68596415 1078.96452434 759.76879121 1070.96826172 772.76953125 C1069.56722387 775.06902676 1068.19051223 777.3747363 1066.83251953 779.69921875 C1066.47428604 780.30362793 1066.11605255 780.90803711 1065.7469635 781.53076172 C1064.74569852 783.22085682 1063.75451127 784.9169104 1062.76391602 786.61328125 C1062.18182373 787.40089844 1061.59973145 788.18851563 1061 789 C1060.01 789 1059.02 789 1058 789 C1056.37890625 786.82421875 1056.37890625 786.82421875 1054.5625 783.6875 C1053.84918908 782.48086338 1053.13424637 781.27519041 1052.41796875 780.0703125 C1051.83668213 779.08466309 1051.83668213 779.08466309 1051.24365234 778.07910156 C1049.02170929 774.36452224 1046.69402793 770.71695635 1044.375 767.0625 C1043.8689624 766.26263672 1043.3629248 765.46277344 1042.84155273 764.63867188 C1037.1726118 755.68077915 1031.4775512 746.73947074 1025.78222656 737.79833984 C1022.85345187 733.19976238 1019.92682309 728.59981973 1017 724 C1015.83334387 722.16665996 1014.6666772 720.33332663 1013.5 718.5 C1011.16666667 714.83333333 1008.83333333 711.16666667 1006.5 707.5 C1005.92233887 706.5922583 1005.34467773 705.6845166 1004.74951172 704.74926758 C1003.58443052 702.91840247 1002.41939136 701.0875106 1001.25439453 699.2565918 C998.31381679 694.63527287 995.37247908 690.0144408 992.4296875 685.39453125 C991.24473016 683.53389334 990.05983401 681.67321645 988.875 679.8125 C988.29451904 678.90089111 987.71403809 677.98928223 987.1159668 677.05004883 C983.3330503 671.10531385 979.56852554 665.14925139 975.8125 659.1875 C972.14589744 653.36799134 968.44001611 647.57694471 964.6875 641.8125 C959.53544688 633.89519397 954.54043871 625.88287538 949.54760742 617.86450195 C945.91663622 612.04157683 942.24894287 606.24762626 938.5 600.5 C934.07832007 593.72097867 929.77811057 586.87043486 925.5 580 C920.77280094 572.41021601 916.00340304 564.85431442 911.1262207 557.36010742 C905.61810471 548.89207455 900.21431878 540.35769672 894.79833984 531.83056641 C891.8682623 527.21865776 888.93395422 522.60944299 886 518 C884.83331226 516.16668008 883.66664561 514.33334673 882.5 512.5 C881.9225 511.5925 881.345 510.685 880.75 509.75 C854.25390625 468.11328125 854.25390625 468.11328125 852.64282227 465.58129883 C851.50562346 463.79446528 850.36806711 462.00785926 849.23022461 460.22143555 C845.61963796 454.55159016 842.02224407 448.87371075 838.4375 443.1875 C832.24511337 433.37450909 826.01613073 423.5849906 819.78222656 413.79833984 C816.85345186 409.19976236 813.92684943 404.59980298 811 400 C810.42628662 399.09854248 809.85257324 398.19708496 809.26147461 397.26831055 C806.28137216 392.58576975 803.30211618 387.90269345 800.32421875 383.21875 C799.719729 382.26838867 799.11523926 381.31802734 798.49243164 380.33886719 C797.30444083 378.4703487 796.11740323 376.60122378 794.93139648 374.73144531 C792.34587132 370.66006701 789.7481066 366.59989532 787.0859375 362.578125 C786.43878784 361.59489258 786.43878784 361.59489258 785.77856445 360.59179688 C784.65170534 358.88510642 783.51569204 357.18446966 782.37890625 355.484375 C781.92386719 354.66453125 781.46882812 353.8446875 781 353 C781.33 352.34 781.66 351.68 782 351 C789.85139895 354.63421784 797.67541453 358.31841681 805.47045898 362.07202148 C813.73668361 366.0503929 822.01246713 369.95679072 830.4387207 373.5847168 C835.3153414 375.68635143 840.13040057 377.90070829 844.93334961 380.16503906 C849.66053999 382.38858978 854.41419348 384.54921321 859.17602539 386.69750977 C866.07483143 389.81052087 872.95362329 392.91523878 879.6875 396.375 C887.67437941 400.45052976 895.90368721 403.9764778 904.10791016 407.58837891 C911.06175825 410.66082965 917.8849615 413.85762911 924.64453125 417.3359375 C930.45994538 420.21994963 936.41554522 422.79217107 942.359375 425.3984375 C944.25464498 426.23219361 946.14803941 427.0740197 948 428 C948.06058594 426.97519531 948.12117188 425.95039062 948.18359375 424.89453125 C948.26805026 423.53384305 948.35269567 422.17316657 948.4375 420.8125 C948.49647461 419.80219727 948.49647461 419.80219727 948.55664062 418.77148438 C948.73246927 415.99880182 948.93571916 413.30501045 949.50927734 410.58349609 C954.28913375 385.41909786 947.76761736 356.22472509 938 333 C937.71672852 332.31969727 937.43345703 331.63939453 937.14160156 330.93847656 C929.88779546 313.80987586 919.51552526 298.70748005 907 285 C906.236875 284.154375 905.47375 283.30875 904.6875 282.4375 C875.52778257 251.70158163 833.88337793 236.26806194 792.12833786 234.72148573 C786.04963309 234.57714305 779.97211221 234.58651423 773.89208984 234.60127258 C771.57116878 234.59582308 769.25025048 234.58907061 766.92933655 234.58114624 C760.61267328 234.56328307 754.29612845 234.5636859 747.97944593 234.56728305 C741.75686581 234.56931834 735.53431237 234.55412045 729.31174965 234.54096243 C716.67593308 234.51470509 704.04013854 234.50173655 691.40429688 234.49711609 C674.31896979 234.49082535 657.23375412 234.46587013 640.1484375 234.43786621 C599.09897795 234.37993076 558.04948528 234.34778118 517 234.3125 C379.39 234.1578125 379.39 234.1578125 239 234 C239.33 439.26 239.66 644.52 240 856 C243.465 850.555 243.465 850.555 247 845 C248.56883879 842.67457605 250.14559542 840.36258492 251.75 838.0625 C256.87711442 830.65462766 261.94466163 823.20694847 267 815.75 C267.81753907 814.54442919 268.6350847 813.33886282 269.45263672 812.13330078 C271.54741297 809.0440296 273.64174076 805.95445463 275.73596191 802.86480713 C279.44806651 797.3884222 283.16103236 791.91262163 286.875 786.4375 C287.2751532 785.8475827 287.6753064 785.25766541 288.08758545 784.64987183 C292.91933369 777.52776853 297.76077036 770.41247684 302.625 763.3125 C313.23156846 747.82789073 323.8100722 732.32690007 334.1875 716.6875 C339.31768534 708.96558156 344.50966049 701.29205662 349.8125 693.6875 C350.39346436 692.85114014 350.97442871 692.01478027 351.57299805 691.15307617 C352.112229 690.38455322 352.65145996 689.61603027 353.20703125 688.82421875 C353.6760083 688.15479248 354.14498535 687.48536621 354.62817383 686.7956543 C355.97028521 685.03889522 357.40003849 683.52215899 359 682 C364.44456841 689.36602227 369.64412159 696.85472398 374.6875 704.5 C379.55841636 711.84453015 384.44879113 719.17238234 389.4375 726.4375 C389.95578369 727.19232666 390.47406738 727.94715332 391.00805664 728.72485352 C392.09212153 730.30354877 393.17618731 731.88224342 394.26025391 733.4609375 C397.56088421 738.27802354 400.84235146 743.10815024 404.125 747.9375 C405.19004761 749.50419434 405.19004761 749.50419434 406.27661133 751.10253906 C412.13586874 759.72404579 417.98754901 768.35068682 423.83911133 776.97741699 C429.69208258 785.60567704 435.55682246 794.22581866 441.43359375 802.83789062 C446.90005651 810.84949142 452.35230333 818.87071856 457.80297852 826.89306641 C461.52297173 832.36581816 465.25297462 837.83135615 468.99926758 843.28613281 C474.38204514 851.12449264 479.68025517 859.01436288 484.9375 866.9375 C490.41182882 875.1851586 495.99934559 883.33673597 501.71069336 891.42163086 C506.95811896 898.87693693 511.99582618 906.46483908 517.03027344 914.06494141 C521.90652705 921.4076584 526.91418318 928.64556342 531.99438477 935.84814453 C536.22627961 941.86027055 540.33442256 947.94441852 544.39379883 954.07397461 C548.36192467 960.06050104 552.38817137 966.00562489 556.4375 971.9375 C557.07365234 972.86949219 557.70980469 973.80148437 558.36523438 974.76171875 C561.33170431 979.10407434 564.30297153 983.44307901 567.28125 987.77734375 C573.2378314 996.4514777 579.1197513 1005.16951525 584.9375 1013.9375 C590.55097372 1022.39504404 596.28131732 1030.75618902 602.13037109 1039.05224609 C605.91923417 1044.43275782 609.61628658 1049.86315106 613.24584961 1055.35205078 C618.72967941 1063.63639534 624.37429776 1071.81166443 630 1080 C630.54495117 1080.79341797 631.08990234 1081.58683594 631.65136719 1082.40429688 C634.76546974 1086.93765026 637.88176031 1091.46949144 641 1096 C640.34 1096.33 639.68 1096.66 639 1097 C636.84514244 1095.92199102 634.84060472 1094.79165723 632.7890625 1093.5390625 C632.15817719 1093.16240448 631.52729187 1092.78574646 630.87728882 1092.39767456 C628.78846125 1091.14782238 626.70680592 1089.88650731 624.625 1088.625 C623.16575435 1087.74869958 621.70611419 1086.8730558 620.24609375 1085.99804688 C615.82363899 1083.34369908 611.41052633 1080.67411075 607 1078 C606.3663855 1077.61598022 605.732771 1077.23196045 605.07995605 1076.83630371 C599.90850047 1073.70108924 594.74038387 1070.56039314 589.57568359 1067.4140625 C580.83487035 1062.09268169 572.05241931 1056.84377244 563.25 1051.625 C562.58922455 1051.23323578 561.9284491 1050.84147156 561.24765015 1050.43783569 C557.19594163 1048.03627216 553.14310711 1045.63661325 549.09002686 1043.23736572 C543.35252264 1039.84057155 537.61665174 1036.44102636 531.88195801 1033.03948975 C529.88636797 1031.85629661 527.88999577 1030.67443217 525.89355469 1029.49267578 C518.94542614 1025.37501308 512.04450931 1021.19092236 505.17358398 1016.94506836 C499.29209757 1013.34034475 493.3400334 1009.85466316 487.39450073 1006.35696411 C480.97714692 1002.57920908 474.58966186 998.76777763 468.27734375 994.81640625 C467.22853027 994.1630127 466.1797168 993.50961914 465.09912109 992.83642578 C463.11235796 991.59401995 461.13190016 990.34145918 459.15869141 989.07763672 C458.2722998 988.52479004 457.3859082 987.97194336 456.47265625 987.40234375 C455.70187744 986.91241943 454.93109863 986.42249512 454.13696289 985.91772461 C452.06757246 984.84535986 452.06757246 984.84535986 449.91479492 985.09350586 C447.34892512 986.30822913 446.44593393 987.73291324 444.890625 990.1015625 C444.30933838 990.97216309 443.72805176 991.84276367 443.12915039 992.73974609 C442.19897095 994.16794678 442.19897095 994.16794678 441.25 995.625 C439.901005 997.65188443 438.55070345 999.67789979 437.19921875 1001.703125 C436.50489746 1002.74919922 435.81057617 1003.79527344 435.09521484 1004.87304688 C431.82252679 1009.75729165 428.44035018 1014.56318826 425.0625 1019.375 C418.7627448 1028.38281573 412.62191673 1037.48778678 406.57836914 1046.66943359 C402.82745543 1052.34726411 398.9369385 1057.88872277 394.91064453 1063.37451172 C392.08601071 1067.25594695 389.38297656 1071.2157787 386.6875 1075.1875 C385.55875364 1076.84385897 384.42984477 1078.50010721 383.30078125 1080.15625 C382.74600098 1080.9709375 382.1912207 1081.785625 381.61962891 1082.625 C379.21417376 1086.15232404 376.79552591 1089.67050774 374.375 1093.1875 C373.92922607 1093.83549561 373.48345215 1094.48349121 373.02416992 1095.15112305 C372.13044475 1096.45024599 371.23664635 1097.74931855 370.34277344 1099.04833984 C368.06091481 1102.36491764 365.78054245 1105.6825171 363.5 1109 C362.58334024 1110.33333808 361.66667358 1111.66667142 360.75 1113 C360.29625 1113.66 359.8425 1114.32 359.375 1115 C333.24999999 1153.00000001 333.24999999 1153.00000001 331.87548828 1154.99926758 C330.95716639 1156.33502333 330.0388722 1157.67079812 329.12060547 1159.0065918 C326.85448843 1162.30301745 324.58791941 1165.59913027 322.3203125 1168.89453125 C321.42184593 1170.20050084 320.52340863 1171.50649056 319.625 1172.8125 C319.17423096 1173.46766602 318.72346191 1174.12283203 318.2590332 1174.79785156 C315.80290044 1178.369937 313.35277571 1181.94600234 310.91015625 1185.52734375 C305.40589683 1193.59526542 299.86781306 1201.63564787 294.25 1209.625 C287.39869784 1219.373369 280.70286413 1229.22458521 274.015625 1239.0859375 C270.10828032 1244.84695613 266.17325824 1250.58842586 262.22192383 1256.31933594 C260.46410367 1258.86886223 258.71784029 1261.42323956 257 1264 C172.19 1264 87.38 1264 0 1264 C0 846.88 0 429.76 0 0 Z " fill="#121C26" transform="translate(188,168)"/>
<path d="M0 0 C0.66 0 1.32 0 2 0 C3.46955653 1.96781818 4.80334961 3.93437069 6.125 6 C7.03209598 7.38831895 7.93968191 8.77631785 8.84765625 10.1640625 C9.3492627 10.93524414 9.85086914 11.70642578 10.36767578 12.50097656 C13.40179312 17.1460895 16.48439572 21.75896835 19.5625 26.375 C20.58174561 27.90543945 20.58174561 27.90543945 21.62158203 29.46679688 C27.23513595 37.88386634 32.91965327 46.25127023 38.62084961 54.60913086 C44.32811583 62.9857871 49.9628362 71.40914779 55.56054688 79.859375 C58.47848348 84.25626577 61.42206503 88.62703191 64.4609375 92.94140625 C67.60331686 97.40553857 70.63752179 101.9340112 73.65625 106.48242188 C76.45735173 110.69570492 79.29170464 114.88645242 82.125 119.078125 C82.67462402 119.89144287 83.22424805 120.70476074 83.79052734 121.54272461 C84.93677249 123.23873984 86.08309566 124.93470233 87.22949219 126.63061523 C96.1009234 139.75548913 104.97099496 152.88043828 113.71484375 166.09082031 C117.1740423 171.30607083 120.69602597 176.47415154 124.25 181.625 C130.39690247 190.53811417 136.38994086 199.5505323 142.375 208.57275391 C147.35945979 216.08307454 152.37050137 223.57067274 157.4921875 230.98828125 C163.13296405 239.15772714 168.63695747 247.41495538 174.125 255.6875 C180.03335691 264.59328231 185.97868926 273.46404477 192.08349609 282.23657227 C194.35033223 285.50514783 196.55838306 288.80558018 198.75 292.125 C202.61322687 297.9538367 206.54271466 303.73465956 210.5 309.5 C215.61093295 316.94880969 220.65545953 324.43740495 225.64941406 331.96508789 C231.49100196 340.76654038 237.3841901 349.53065395 243.32104492 358.26794434 C252.32228085 371.51868717 261.24435941 384.82028442 270.10009766 398.16870117 C274.788223 405.22794952 279.52744843 412.2484287 284.32421875 419.234375 C288.82456046 425.79035542 293.27513786 432.37667023 297.67578125 439 C298.22366302 439.82457703 298.7715448 440.64915405 299.33602905 441.49871826 C301.55997005 444.84832141 303.78208485 448.19912754 306.00219727 451.55126953 C311.49823714 459.84582834 316.99812616 468.09555485 322.91479492 476.09814453 C327.80722866 482.90665259 332.3675035 489.950866 337 496.9375 C338.051864 498.52032807 339.10394618 500.10301118 340.15625 501.68554688 C342.18972991 504.74433925 344.22232925 507.80371295 346.25390625 510.86376953 C346.72328613 511.57075989 347.19266602 512.27775024 347.67626953 513.00616455 C348.50277752 514.25107125 349.32927646 515.49598397 350.15576172 516.74090576 C354.99365585 524.02479143 359.88746596 531.26945183 364.80767822 538.49789429 C371.29425655 548.02986054 377.74417761 557.58426631 384.125 567.1875 C390.23393859 576.38142206 396.42106269 585.51929539 402.640625 594.63867188 C408.19062838 602.78579222 413.66529102 610.98101037 419.12109375 619.19140625 C424.13924477 626.73347937 429.23020067 634.22322337 434.34716797 641.69848633 C439.66667433 649.48181561 444.90204745 657.31962685 450.10742188 665.1796875 C453.78528965 670.72178667 457.51909348 676.22112601 461.296875 681.6953125 C467.42869749 690.58461352 473.40551041 699.57400273 479.375 708.57275391 C484.81147463 716.7641466 490.29825291 724.9146855 495.88406372 733.00505066 C501.4306933 741.05213932 506.82190658 749.2020546 512.22412109 757.34643555 C518.07770441 766.16703405 523.99323158 774.94097336 529.98161316 783.67066956 C535.6837992 791.98630725 541.32915468 800.3398986 546.96704102 808.69921875 C548.69664124 811.26355296 550.4273575 813.82713127 552.15820312 816.390625 C557.19120668 823.84788543 562.2161002 831.31007428 567.19921875 838.80078125 C571.69835585 845.56394694 576.2506321 852.29015257 580.81524658 859.00924683 C587.79748484 869.28868027 594.74724193 879.58777661 601.625 889.9375 C608.51829713 900.30787117 615.49469346 910.61656353 622.671875 920.79296875 C623.09605713 921.39729736 623.52023926 922.00162598 623.95727539 922.62426758 C625.10680686 924.2601656 626.26217079 925.89196087 627.41796875 927.5234375 C629 930 629 930 629 932 C594.07809302 932.45829452 559.1568752 932.81044872 524.23260801 933.02130659 C520.10477413 933.04631918 515.97694615 933.07220578 511.84912109 933.09863281 C510.6165151 933.10650213 510.6165151 933.10650213 509.35900797 933.11453041 C496.07236414 933.20143812 482.78746001 933.35905659 469.50184654 933.54305592 C455.8581179 933.73043166 442.21529694 933.84124568 428.57033455 933.8817699 C420.15690869 933.90914719 411.74839964 933.99541116 403.33648886 934.15832934 C397.55917228 934.26448646 391.78437674 934.29591158 386.00615691 934.27002755 C382.67367761 934.25726413 379.35658783 934.28707001 376.02449036 934.3841095 C356.62578353 934.92114441 356.62578353 934.92114441 350.6034112 930.06916714 C346.33158835 925.37787357 343.27189825 920.16140177 340.3777144 914.54416418 C338.20337142 910.52890128 335.51636364 906.91959005 332.8125 903.25 C331.82655357 901.86141083 330.84311156 900.47103663 329.86328125 899.078125 C329.38713379 898.40201172 328.91098633 897.72589844 328.42041016 897.02929688 C325.63012078 893.04289515 322.88632777 889.0246048 320.13720703 885.00976562 C316.36883646 879.51529029 312.53618572 874.06819689 308.68701172 868.63012695 C303.02552693 860.63036023 297.41135571 852.59768705 291.79541016 844.56591797 C289.99432479 841.99188925 288.19088229 839.4195282 286.38671875 836.84765625 C281.0172913 829.19103392 275.65970943 821.5279076 270.375 813.8125 C266.19786933 807.71507703 261.95747758 801.66514831 257.6887207 795.6315918 C248.51452987 782.66432478 239.42041602 769.64659565 230.47729492 756.51879883 C227.07536813 751.53708822 223.5854326 746.63482375 220.0078125 741.77734375 C217.52956871 738.34926723 215.13797485 734.86630883 212.75 731.375 C208.9806391 725.86448206 205.17247912 720.38493608 201.3125 714.9375 C196.54844614 708.21154636 191.82778444 701.45642949 187.125 694.6875 C182.01004598 687.32627379 176.88994687 679.96880377 171.75 672.625 C171.17596436 671.80483398 170.60192871 670.98466797 170.01049805 670.13964844 C166.8257681 665.59380229 163.62773449 661.05769573 160.41894531 656.52880859 C155.15463182 649.09734694 149.98201299 641.6089482 144.85302734 634.08349609 C140.3307531 627.45846543 135.71919322 620.90036218 131.08203125 614.35546875 C121.96380206 601.48456866 112.96952352 588.52590641 103.96630859 575.57446289 C97.90235711 566.85359523 91.81358521 558.15027575 85.71777344 549.45166016 C82.22499519 544.46665744 78.7353709 539.47944619 75.24511719 534.49267578 C72.35451808 530.36290341 69.46323311 526.2336153 66.5703125 522.10546875 C59.68271938 512.27499493 52.81705622 502.42957704 45.96582031 492.57373047 C39.90199382 483.85313321 33.81341689 475.15003556 27.71777344 466.45166016 C24.22861047 461.47181728 20.74244772 456.48987315 17.25610352 451.50805664 C14.30428036 447.29039917 11.35089519 443.07385112 8.39453125 438.859375 C3.02276605 431.19866286 -2.33763946 423.53177809 -7.625 415.8125 C-11.80270376 409.71424048 -16.04291065 403.6629234 -20.31347656 397.62939453 C-25.98214305 389.6196377 -31.60345776 381.57693269 -37.2265625 373.53515625 C-38.96233633 371.0538408 -40.69962514 368.57359426 -42.4375 366.09375 C-49.32286948 356.26744773 -56.18562244 346.42572364 -63.03417969 336.57373047 C-67.38764685 330.31285973 -71.75075454 324.05887078 -76.125 317.8125 C-76.97856079 316.59348999 -76.97856079 316.59348999 -77.84936523 315.34985352 C-80.7394846 311.22363589 -83.63219575 307.09925325 -86.52734375 302.9765625 C-92.25787148 294.81054071 -97.95221366 286.62417687 -103.5625 278.375 C-108.34236702 271.35060432 -113.25889614 264.43944516 -118.25708008 257.5690918 C-122.75140251 251.37926152 -127.10823301 245.10466954 -131.40625 238.77734375 C-133.13572811 236.23733605 -134.90640679 233.73543238 -136.71875 231.25390625 C-137.35925293 230.36602417 -137.35925293 230.36602417 -138.01269531 229.46020508 C-139.17189719 227.85795387 -140.34333366 226.26457426 -141.515625 224.671875 C-143 222 -143 222 -142.71362305 220.04321289 C-141.52413201 216.63751651 -139.49680784 213.70917707 -137.5625 210.6875 C-137.11148926 209.97456787 -136.66047852 209.26163574 -136.19580078 208.52709961 C-132.93044837 203.39039226 -129.57040488 198.32114431 -126.16967773 193.2734375 C-122.05531979 187.14155989 -118.09287843 180.91481948 -114.125 174.6875 C-108.95321294 166.57548414 -103.7221927 158.51290923 -98.36108398 150.52490234 C-93.0697312 142.63474275 -87.91164874 134.6593877 -82.74462891 126.6875 C-79.63029424 121.89004744 -76.50167582 117.10191444 -73.375 112.3125 C-69.11140372 105.77954416 -64.85634163 99.2413924 -60.625 92.6875 C-55.6185046 84.93446479 -50.56686967 77.21111143 -45.51330566 69.4887085 C-40.78970417 62.27032022 -36.0733895 55.04733094 -31.375 47.8125 C-24.8379701 37.748901 -18.29807796 27.6872748 -11.72753906 17.64550781 C-10.11178555 15.17118545 -8.50443311 12.69159912 -6.8984375 10.2109375 C-5.99519021 8.82786464 -5.09157401 7.4450326 -4.1875 6.0625 C-3.7850708 5.43561279 -3.3826416 4.80872559 -2.96801758 4.1628418 C-2.03102286 2.73935827 -1.02285867 1.36309376 0 0 Z " fill="#121C26" transform="translate(782,500)"/>
<path d="M0 0 C3.34292611 3.1019945 5.76244801 6.43575362 8.25 10.25 C8.95640625 11.32765625 9.6628125 12.4053125 10.390625 13.515625 C10.92171875 14.33546875 11.4528125 15.1553125 12 16 C11.34 16.33 10.68 16.66 10 17 C7.72619503 15.89600785 5.6485984 14.74949664 3.5 13.4375 C2.90574219 13.10169922 2.31148437 12.76589844 1.69921875 12.41992188 C-1.51288551 10.47308216 -2.90990158 9.20997937 -4.40625 5.72265625 C-4.70015625 4.37494141 -4.70015625 4.37494141 -5 3 C-4.34 2.34 -3.68 1.68 -3 1 C-2.01 1.33 -1.02 1.66 0 2 C0 1.34 0 0.68 0 0 Z " fill="#1A232B" transform="translate(817,1248)"/>
<path d="M0 0 C2.31 0.66 4.62 1.32 7 2 C6.67 2.66 6.34 3.32 6 4 C6.33 4.99 6.66 5.98 7 7 C5.68 8.32 4.36 9.64 3 11 C1.35 8.03 -0.3 5.06 -2 2 C-1.34 1.34 -0.68 0.68 0 0 Z " fill="#1C232C" transform="translate(1244,947)"/>
<path d="M0 0 C3.67033927 3.27708863 5.69281189 6.71522208 8 11 C3.69235185 9.43358249 -0.06171464 7.31663844 -4 5 C-3.01 4.67 -2.02 4.34 -1 4 C-0.26676204 1.98491642 -0.26676204 1.98491642 0 0 Z " fill="#2A3037" transform="translate(821,1254)"/>
<path d="M0 0 C3.14624993 -0.26218749 4.61837017 -0.24754367 7.3125 1.5 C8.1478125 2.2425 8.1478125 2.2425 9 3 C8.34 5.31 7.68 7.62 7 10 C3.72713318 7.2180632 2.03572303 3.72045933 0 0 Z " fill="#1F272F" transform="translate(1143,794)"/>
<path d="M0 0 C0.66 1.32 1.32 2.64 2 4 C1.34 4 0.68 4 0 4 C-0.061875 4.598125 -0.12375 5.19625 -0.1875 5.8125 C-1.3236757 8.87143458 -3.17330142 9.55041099 -6 11 C-4.54955729 6.89041233 -2.48889248 3.56741255 0 0 Z " fill="#242C33" transform="translate(664,681)"/>
<path d="M0 0 C0.33 0 0.66 0 1 0 C1.33 1.98 1.66 3.96 2 6 C-2.75 9 -2.75 9 -5 9 C-3.75471468 5.55151758 -2.38532951 2.80016942 0 0 Z " fill="#252C32" transform="translate(677,661)"/>
<path d="M0 0 C0.99 0.99 1.98 1.98 3 3 C2.34 3 1.68 3 1 3 C0.7525 3.804375 0.505 4.60875 0.25 5.4375 C-1 8 -1 8 -3.125 8.8125 C-3.74375 8.874375 -4.3625 8.93625 -5 9 C-3.7508258 5.54074837 -2.32472205 2.85306797 0 0 Z " fill="#1F262E" transform="translate(683,652)"/>
<path d="M0 0 C1.32 0 2.64 0 4 0 C2.7508258 3.45925163 1.32472205 6.14693203 -1 9 C-1.09765625 2.84765625 -1.09765625 2.84765625 -1 1 C-0.67 0.67 -0.34 0.34 0 0 Z " fill="#1F262D" transform="translate(1259,932)"/>
<path d="M0 0 C0.66 0.33 1.32 0.66 2 1 C1.67 1.66 1.34 2.32 1 3 C0.67 3 0.34 3 0 3 C-0.66 4.98 -1.32 6.96 -2 9 C-3.32 8.67 -4.64 8.34 -6 8 C-4.02 5.36 -2.04 2.72 0 0 Z " fill="#1C242C" transform="translate(757,539)"/>
<path d="M0 0 C0.66 0.66 1.32 1.32 2 2 C-0.64 5.3 -3.28 8.6 -6 12 C-6 8.36804504 -5.04546845 7.25286089 -3 4.3125 C-2.443125 3.50425781 -1.88625 2.69601562 -1.3125 1.86328125 C-0.879375 1.24839844 -0.44625 0.63351562 0 0 Z " fill="#293036" transform="translate(497,922)"/>
<path d="M0 0 C0.66 0 1.32 0 2 0 C3.32 2.31 4.64 4.62 6 7 C5.34 7 4.68 7 4 7 C3.67 7.66 3.34 8.32 3 9 C2.566875 7.2984375 2.566875 7.2984375 2.125 5.5625 C1.75375 4.386875 1.3825 3.21125 1 2 C0.34 1.67 -0.32 1.34 -1 1 C-0.67 0.67 -0.34 0.34 0 0 Z M-1 4 C1 5 1 5 1 5 Z " fill="#212830" transform="translate(782,500)"/>
<path d="M0 0 C-0.33 1.32 -0.66 2.64 -1 4 C-3.91517292 2.92598892 -5.77810176 2.22189824 -8 0 C-2.25 -1.125 -2.25 -1.125 0 0 Z " fill="#1D262E" transform="translate(666,1163)"/>
<path d="M0 0 C2.625 0.375 2.625 0.375 5 1 C3.02 1.99 3.02 1.99 1 3 C1 3.66 1 4.32 1 5 C-0.65 5.66 -2.3 6.32 -4 7 C-2.92598892 4.08482708 -2.22189824 2.22189824 0 0 Z " fill="#262E36" transform="translate(521,887)"/>
<path d="M0 0 C2.92879371 0.62759865 5.36095629 1.58622659 8 3 C8 3.66 8 4.32 8 5 C7.34 5 6.68 5 6 5 C5.67 5.66 5.34 6.32 5 7 C4.34 5.35 3.68 3.7 3 2 C2.01 2 1.02 2 0 2 C0 1.34 0 0.68 0 0 Z " fill="#1B232B" transform="translate(1165,216)"/>
<path d="M0 0 C0.33 0.66 0.66 1.32 1 2 C1.66 2.33 2.32 2.66 3 3 C2.01 3.33 1.02 3.66 0 4 C-1.68538601 5.99665314 -1.68538601 5.99665314 -3 8 C-3.66 7.67 -4.32 7.34 -5 7 C-3.35 4.69 -1.7 2.38 0 0 Z " fill="#262D35" transform="translate(434,1015)"/>
<path d="M0 0 C1.65 0.99 3.3 1.98 5 3 C4.67 3.99 4.34 4.98 4 6 C2.68 5.34 1.36 4.68 0 4 C0 2.68 0 1.36 0 0 Z " fill="#1C252D" transform="translate(1232,261)"/>
<path d="M0 0 C1.5 1.375 1.5 1.375 3 3 C3 3.66 3 4.32 3 5 C-0.3 5 -3.6 5 -7 5 C-7 4.67 -7 4.34 -7 4 C-4.69 4 -2.38 4 0 4 C0 2.68 0 1.36 0 0 Z " fill="#292E33" transform="translate(1408,1427)"/>
<path d="M0 0 C2.91517292 1.07401108 4.77810176 1.77810176 7 4 C5.35 4.33 3.7 4.66 2 5 C1.34 3.35 0.68 1.7 0 0 Z " fill="#293038" transform="translate(1183,226)"/>
</svg>
