<?xml version="1.0" encoding="UTF-8"?>
<svg version="1.1" xmlns="http://www.w3.org/2000/svg" width="8192" height="1937">
<path d="M0 0 C2703.36 0 5406.72 0 8192 0 C8192 639.21 8192 1278.42 8192 1937 C5488.64 1937 2785.28 1937 0 1937 C0 1297.79 0 658.58 0 0 Z " fill="#FEFEFE" transform="translate(0,0)"/>
<path d="M0 0 C143.385 -0.020625 286.77 -0.04125 434.5 -0.0625 C479.80603516 -0.071604 525.11207031 -0.08070801 571.79101562 -0.09008789 C627.03417969 -0.09460449 627.03417969 -0.09460449 652.88024902 -0.09544373 C672.15686001 -0.09643836 691.43346748 -0.10075034 710.71007748 -0.10667343 C730.37712508 -0.11263466 750.04417046 -0.11483473 769.71121892 -0.11344495 C781.39693335 -0.11272883 793.08263953 -0.11470322 804.76835243 -0.1208076 C812.49681491 -0.12456992 820.22527194 -0.12466125 827.9537348 -0.12183534 C832.34747448 -0.1203315 836.74119839 -0.12035364 841.13493633 -0.12488258 C891.70860394 -0.17383671 891.70860394 -0.17383671 912 3 C913.26714844 3.19335938 914.53429688 3.38671875 915.83984375 3.5859375 C933.26903876 6.38759198 950.68061915 10.31914274 967.44921875 15.84375 C972.19610699 17.38949138 976.99912475 18.70084297 981.81640625 20.0078125 C985.336776 21.10495841 988.62077778 22.5271974 992 24 C994.30912889 24.84262949 996.62189533 25.67533297 998.9375 26.5 C1010.2499495 30.65747425 1021.11997644 35.83568276 1032 41 C1032.88268555 41.41797852 1033.76537109 41.83595703 1034.67480469 42.26660156 C1061.83760456 55.2256732 1087.26462358 71.53055869 1111 90 C1111.9075 90.70511719 1112.815 91.41023438 1113.75 92.13671875 C1124.34110229 100.50436847 1134.52168543 109.32310611 1144.39941406 118.51708984 C1146.1304258 120.12083684 1147.8730624 121.71130991 1149.6171875 123.30078125 C1155.17159391 128.38053972 1160.60999426 133.39449311 1165.4375 139.1875 C1167.15369477 141.17828594 1168.98740567 142.98389299 1170.875 144.8125 C1174.84803372 148.72417412 1178.31081794 152.95506726 1181.796875 157.30078125 C1183.71607528 159.65214188 1185.6951334 161.89313859 1187.75 164.125 C1193.95981469 171.03851139 1199.43301269 178.56842344 1205 186 C1205.49467773 186.65871094 1205.98935547 187.31742188 1206.49902344 187.99609375 C1223.33911524 210.48020267 1238.51193308 234.63302415 1249.8515625 260.39453125 C1250.63556697 262.17320806 1251.44405879 263.94124117 1252.2734375 265.69921875 C1254.90712953 271.2938191 1257.07170494 276.88008453 1258.91015625 282.78515625 C1259.80834897 285.43466381 1260.80158038 287.96912525 1261.87109375 290.55078125 C1264.3251689 296.62329861 1266.17103394 302.84070102 1268 309.125 C1268.5254541 310.9205835 1268.5254541 310.9205835 1269.06152344 312.75244141 C1271.59024093 321.45683847 1274.03678786 330.14769798 1276 339 C1276.15919922 339.71027344 1276.31839844 340.42054688 1276.48242188 341.15234375 C1287.26111428 390.22265546 1288.29390523 442.00641114 1284.1706543 491.92803955 C1284.05711519 493.3065489 1283.94593984 494.68525502 1283.8371582 496.06414795 C1282.24351195 516.24378298 1279.0968689 535.9651926 1275.125 555.8125 C1274.91834717 556.84937958 1274.71169434 557.88625916 1274.4987793 558.95455933 C1270.4088048 579.30444479 1265.55386568 599.3808459 1258.69702148 618.98657227 C1257.97407642 621.07488327 1257.27813627 623.17084099 1256.5859375 625.26953125 C1248.68529997 649.04018933 1239.56831221 672.29362243 1229 695 C1228.55140625 695.96566895 1228.1028125 696.93133789 1227.640625 697.92626953 C1217.46112044 719.73599787 1206.1680935 740.71725468 1193.5793457 761.22583008 C1188.44585734 769.59020028 1183.43853648 778.01919533 1178.5 786.5 C1172.50087011 796.79381985 1166.38964606 807.01198593 1160.18508911 817.18322754 C1153.34794555 828.39204904 1146.64081724 839.67392207 1140 851 C1136.01472523 847.47705409 1133.61211169 843.3388398 1130.9375 838.8125 C1127.28102913 832.72717098 1123.56669627 826.6960046 1119.6875 820.75 C1115.48209843 814.29505677 1111.31957891 807.81465761 1107.1875 801.3125 C1106.59864014 800.38598633 1106.00978027 799.45947266 1105.40307617 798.50488281 C1104.20132716 796.61355217 1102.99974932 794.72211275 1101.79833984 792.83056641 C1098.8682623 788.21865776 1095.93395422 783.60944299 1093 779 C1091.83331226 777.16668008 1090.66664561 775.33334673 1089.5 773.5 C1088.9225 772.5925 1088.345 771.685 1087.75 770.75 C1086 768 1084.25 765.25 1082.5 762.5 C1081.92233887 761.5922583 1081.34467773 760.6845166 1080.74951172 759.74926758 C1079.58443052 757.91840247 1078.41939136 756.0875106 1077.25439453 754.2565918 C1074.31381679 749.63527287 1071.37247908 745.0144408 1068.4296875 740.39453125 C1062.44643027 730.99976771 1056.47672124 721.5968409 1050.53417969 712.17626953 C1044.97501424 703.3678361 1039.37816293 694.58344039 1033.78222656 685.79833984 C1030.85345187 681.19976238 1027.92682309 676.59981973 1025 672 C1023.83334387 670.16665996 1022.6666772 668.33332663 1021.5 666.5 C1014.5 655.5 1007.5 644.5 1000.5 633.5 C999.92233887 632.5922583 999.34467773 631.6845166 998.74951172 630.74926758 C997.58443052 628.91840247 996.41939136 627.0875106 995.25439453 625.2565918 C992.31381679 620.63527287 989.37247908 616.0144408 986.4296875 611.39453125 C980.44643027 601.99976771 974.47672124 592.5968409 968.53417969 583.17626953 C962.97501424 574.3678361 957.37816293 565.58344039 951.78222656 556.79833984 C948.85345187 552.19976238 945.92682309 547.59981973 943 543 C941.83334387 541.16665996 940.6666772 539.33332663 939.5 537.5 C932.5 526.5 925.5 515.5 918.5 504.5 C917.6335083 503.13838745 917.6335083 503.13838745 916.74951172 501.74926758 C915.58443052 499.91840247 914.41939136 498.0875106 913.25439453 496.2565918 C910.31381679 491.63527287 907.37247908 487.0144408 904.4296875 482.39453125 C898.32475191 472.80870399 892.23024147 463.21658834 886.16943359 453.6027832 C883.65180937 449.61010921 881.12407359 445.62420437 878.5859375 441.64453125 C875.04085511 436.07768553 871.54959485 430.47828002 868.0625 424.875 C863.9609008 418.29194889 859.83820738 411.72397743 855.64453125 405.19921875 C854.93095459 404.08885254 854.21737793 402.97848633 853.48217773 401.83447266 C852.11320516 399.70876644 850.74176109 397.58464913 849.36743164 395.46240234 C845.68721361 389.75144292 842.20145562 383.99359699 839 378 C844.09321051 379.21794164 848.35424124 381.10929432 852.99609375 383.51171875 C856.61255403 385.30348906 860.29388175 386.90426826 864 388.5 C869.19562572 390.74246157 874.27708066 393.10174412 879.3125 395.6875 C882.82785429 397.40430093 886.40880318 398.94955709 890 400.5 C895.19539553 402.74303054 900.27704195 405.10172424 905.3125 407.6875 C908.82785429 409.40430093 912.40880318 410.94955709 916 412.5 C921.19539553 414.74303054 926.27704195 417.10172424 931.3125 419.6875 C935.45807087 421.71208112 939.6968267 423.51987695 943.94140625 425.32617188 C948.47188949 427.2710763 952.86739719 429.42035505 957.26757812 431.64306641 C962.37813276 434.18099195 967.56925424 436.54709478 972.75 438.9375 C975.20846821 440.07523073 977.66680503 441.21324186 980.125 442.3515625 C980.75799011 442.64450699 981.39098022 442.93745148 982.04315186 443.23927307 C989.61987633 446.7470049 997.18495209 450.27967505 1004.75 453.8125 C1006.08430665 454.43547245 1007.41861646 455.05843812 1008.75292969 455.68139648 C1011.83542362 457.12063739 1014.91776226 458.56021051 1018 460 C1024.98832004 410.22061038 1018.11831645 363.64178538 987.7109375 322.5234375 C983.09538667 316.4385293 978.11333525 310.66921394 973 305 C972.32453125 304.25105469 971.6490625 303.50210937 970.953125 302.73046875 C944.3349819 274.80416905 903.55869033 257.08856891 865.46413665 254.20027926 C863.81555519 254.06628642 862.16819096 253.91641068 860.52246193 253.75102973 C854.11388934 253.10871986 847.79218316 252.85422299 841.35413837 252.8613348 C840.33649618 252.85849206 839.31885399 252.85564932 838.27037416 252.85272044 C834.8764742 252.84442846 831.48260863 252.84310866 828.08869934 252.84178162 C825.63088908 252.83722123 823.17307959 252.83222925 820.715271 252.82684326 C815.37218427 252.81612371 810.02910613 252.80845109 804.68601191 252.80346954 C796.63790908 252.79594619 788.58982239 252.78266803 780.54172918 252.76832329 C767.0528636 252.74443524 753.56399525 252.72499004 740.07511902 252.70826721 C721.83632506 252.68564146 703.59754945 252.65687695 685.35876465 252.6270752 C641.5100178 252.55853337 597.66125793 252.49854098 553.8125 252.4375 C455.864375 252.293125 357.91625 252.14875 257 252 C257.33 472.44 257.66 692.88 258 920 C262.62 913.07 267.24 906.14 272 899 C274.76352465 894.91123419 277.53043658 890.8260049 280.3125 886.75 C281.75913625 884.62631684 283.20575018 882.50261848 284.65234375 880.37890625 C285.37276855 879.32203613 286.09319336 878.26516602 286.83544922 877.17626953 C290.35220219 872.01577369 293.86362117 866.85165346 297.375 861.6875 C298.07085205 860.66430664 298.7667041 859.64111328 299.48364258 858.58691406 C304.82746741 850.7280244 310.16468127 842.86466502 315.5 835 C323.62727044 823.01978611 331.76473795 811.04653754 339.90722656 799.07666016 C344.14088234 792.85261324 348.37344529 786.62782296 352.60571289 780.40283203 C355.8750109 775.5944398 359.14491556 770.78646472 362.41751099 765.98031616 C363.56107271 764.30080196 364.70439868 762.6211275 365.84765625 760.94140625 C367.27036977 758.85124689 368.69351046 756.76137819 370.1171875 754.671875 C374.78748345 747.80921133 379.40652574 740.91422707 384 734 C388.01833819 735.50875234 389.49330067 737.82848501 391.75390625 741.39453125 C392.4514502 742.47686035 393.14899414 743.55918945 393.86767578 744.67431641 C394.57134277 745.77179199 395.27500977 746.86926758 396 748 C397.29373464 749.92532669 398.59435947 751.84604411 399.90234375 753.76171875 C400.88267578 755.20224609 400.88267578 755.20224609 401.8828125 756.671875 C402.56085938 757.66703125 403.23890625 758.6621875 403.9375 759.6875 C405.05430935 761.3282446 406.17111778 762.96898982 407.28787231 764.60977173 C408.43507141 766.2951396 409.58250872 767.9803451 410.72998047 769.66552734 C414.32248379 774.94198663 417.91099073 780.2211638 421.5 785.5 C422.91664884 787.58334545 424.33331554 789.66667876 425.75 791.75 C451.24999997 829.24999995 451.24999997 829.24999995 453.37548828 832.37573242 C454.79050953 834.45663646 456.20554856 836.53752841 457.62060547 838.6184082 C461.18759374 843.86381017 464.75426157 849.10942949 468.3203125 854.35546875 C475.04067352 864.2412172 481.76409175 874.1248369 488.5 884 C495.95863574 894.9347161 503.40167033 905.88000802 510.84277344 916.82666016 C514.39460354 922.05150032 517.94734352 927.27572171 521.5 932.5 C522.91667112 934.58333031 524.33333778 936.66666364 525.75 938.75 C526.45125 939.78125 527.1525 940.8125 527.875 941.875 C551.25000002 976.25000003 551.25000002 976.25000003 553.37548828 979.37573242 C554.79050953 981.45663646 556.20554856 983.53752841 557.62060547 985.6184082 C561.18759374 990.86381017 564.75426157 996.10942949 568.3203125 1001.35546875 C575.04067352 1011.2412172 581.76409175 1021.1248369 588.5 1031 C595.95863574 1041.9347161 603.40167033 1052.88000802 610.84277344 1063.82666016 C614.39460354 1069.05150032 617.94734352 1074.27572171 621.5 1079.5 C622.91667112 1081.58333031 624.33333778 1083.66666364 625.75 1085.75 C626.45125 1086.78125 627.1525 1087.8125 627.875 1088.875 C635.66666667 1100.33333333 643.45833333 1111.79166667 651.25 1123.25 C651.9519751 1124.28229736 652.6539502 1125.31459473 653.37719727 1126.37817383 C654.78661102 1128.45087925 656.19595406 1130.52363276 657.60522461 1132.59643555 C660.87467731 1137.40507741 664.14475042 1142.21329276 667.41751099 1147.01968384 C668.56107271 1148.69919804 669.70439868 1150.3788725 670.84765625 1152.05859375 C672.27036977 1154.14875311 673.69351046 1156.23862181 675.1171875 1158.328125 C679.78748345 1165.19078867 684.40652574 1172.08577293 689 1179 C688.67 1179.66 688.34 1180.32 688 1181 C672.55754473 1171.86790175 657.12709763 1162.7203401 641.8125 1153.375 C632.43156643 1147.65064182 622.99353404 1142.03554212 613.5 1136.5 C604.0064599 1130.96445435 594.56860561 1125.34908134 585.1875 1119.625 C575.10312049 1113.47204342 564.97638683 1107.39575602 554.8125 1101.375 C552.10281264 1099.7696189 549.39314786 1098.16419974 546.68359375 1096.55859375 C546.02718399 1096.16963425 545.37077423 1095.78067474 544.69447327 1095.37992859 C535.55982243 1089.96417707 526.45996083 1084.49047252 517.35888672 1079.01855469 C511.40796073 1075.44228953 505.45380734 1071.87140244 499.50006104 1068.29983521 C496.22779392 1066.33679448 492.955698 1064.37346844 489.68359375 1062.41015625 C488.58587646 1061.75152588 487.48815918 1061.09289551 486.35717773 1060.41430664 C485.57930908 1059.94758545 484.80144043 1059.48086426 484 1059 C480.97246928 1061.85216055 478.6660075 1064.77681056 476.390625 1068.25390625 C475.71773437 1069.27419922 475.04484375 1070.29449219 474.3515625 1071.34570312 C473.65804688 1072.40724609 472.96453125 1073.46878906 472.25 1074.5625 C467.63393131 1081.60507628 462.93485501 1088.53762518 457.94677734 1095.32250977 C454.75817143 1099.70794255 451.72613891 1104.19746224 448.6875 1108.6875 C447.37394153 1110.62125925 446.06013783 1112.55485195 444.74609375 1114.48828125 C444.10913574 1115.42623535 443.47217773 1116.36418945 442.81591797 1117.33056641 C440.3059189 1121.02031228 437.78064593 1124.69939504 435.25 1128.375 C434.59294067 1129.32959106 434.59294067 1129.32959106 433.92260742 1130.3034668 C433.0520461 1131.56795752 432.18136067 1132.83236282 431.31054688 1134.09667969 C429.03844939 1137.39646956 426.76942087 1140.69836901 424.5 1144 C423.58334714 1145.33334282 422.66668049 1146.66667617 421.75 1148 C421.29625 1148.66 420.8425 1149.32 420.375 1150 C372.25 1220 324.125 1290 276 1360 C184.92 1360 93.84 1360 0 1360 C0 911.2 0 462.4 0 0 Z " fill="#121C27" transform="translate(544,277)"/>
<path d="M0 0 C2.05683257 18.40407958 3.28762888 36.87318361 4.59933496 55.34148073 C4.9394539 60.12141091 5.28287055 64.90110442 5.62582397 69.68083191 C6.29512857 79.01656369 6.96132433 88.35251473 7.62627997 97.68855719 C8.16693591 105.27907831 8.70855837 112.86952986 9.25085068 120.45993423 C10.95835335 144.36094003 12.66249989 168.26218279 14.36409138 192.16361012 C15.70475493 210.9934103 17.05059974 229.82283606 18.39882244 248.65209638 C19.78578859 268.02320172 21.16905604 287.39456805 22.54841793 306.7662164 C23.32185745 317.62733927 24.09678089 328.48835139 24.87564468 339.34908676 C25.5381518 348.58778075 26.19718802 357.82671434 26.85178055 367.06597261 C27.18548964 371.77474881 27.52076825 376.48339879 27.86040497 381.19175148 C28.17179075 385.50904248 28.47851806 389.82663934 28.78167616 394.14451565 C28.89159832 395.69878846 29.00316334 397.25294624 29.11662246 398.80696486 C29.80309017 408.22487528 30.14030653 417.55617292 30 427 C29.02844971 426.5138623 28.05689941 426.02772461 27.0559082 425.52685547 C20.71975767 422.35721068 14.38303494 419.18878112 8.04003906 416.03285217 C-18.26852942 402.94310261 -18.26852942 402.94310261 -30.29711914 396.52929688 C-37.30799845 392.80197393 -44.41127639 389.26542175 -51.53173828 385.75268555 C-56.45339339 383.31552417 -61.2641672 380.78197828 -66 378 C-66.350625 379.155 -66.70125 380.31 -67.0625 381.5 C-70.41176323 391.54778969 -75.01938732 401.20160877 -79.8359375 410.6171875 C-81.55836046 414.14295263 -83.00318609 417.7715906 -84.48828125 421.40234375 C-88.75781989 431.56318378 -93.39093757 441.58118355 -98.0625 451.5625 C-100.48744534 456.7808216 -102.72441623 462.06464781 -104.9375 467.375 C-108.09353541 474.93849973 -111.45267352 482.3723028 -114.95605469 489.78076172 C-120.96467042 502.55398833 -126.81546261 515.38311655 -132.22900391 528.42016602 C-134.95586092 534.96392545 -137.92573955 541.37267646 -140.95605469 547.78076172 C-146.99401135 560.61636182 -152.87094485 573.50644797 -158.29052734 586.61572266 C-160.46794038 591.84579443 -162.90229874 596.88005772 -165.50390625 601.9140625 C-167.34479309 605.71119201 -168.92425301 609.58701653 -170.5 613.5 C-172.90512871 619.4698379 -175.5383413 625.21631498 -178.48046875 630.9453125 C-182.41056114 638.84590955 -185.74441933 647.04731079 -189.19921875 655.1640625 C-194.13875307 666.76063411 -199.28912696 678.20461911 -204.70703125 689.5859375 C-208.35193897 697.2862434 -211.73951598 705.06369704 -215.01049805 712.93017578 C-217.63183345 719.20431691 -220.43841138 725.36811713 -223.359375 731.5078125 C-225.30211401 735.64307126 -227.14440496 739.82491115 -229 744 C-179.5 744 -130 744 -79 744 C-83.58582429 733.68189535 -88.10564037 723.69278588 -93.1953125 713.671875 C-95.26542092 709.53165817 -96.99804302 705.27667171 -98.7265625 700.984375 C-100.16204638 697.62023486 -101.77870394 694.38464291 -103.4375 691.125 C-106.37764405 685.34631516 -108.95784612 679.48449485 -111.46484375 673.5078125 C-113.56498046 668.70902683 -115.95262357 664.07316431 -118.328125 659.40625 C-120.4001051 655.1848326 -122.20600176 650.88607071 -123.95703125 646.5234375 C-124.89991284 644.03887703 -124.89991284 644.03887703 -126.19921875 642.1015625 C-127.82481323 637.83536819 -126.21594573 633.56037627 -124.63647461 629.46166992 C-124.06766589 628.21368569 -123.48915274 626.97009095 -122.90234375 625.73046875 C-122.59232925 625.05630417 -122.28231476 624.38213959 -121.96290588 623.68754578 C-120.96270242 621.51693161 -119.95018396 619.35231536 -118.9375 617.1875 C-118.24510624 615.69007211 -117.55370343 614.19218562 -116.86328125 612.69384766 C-115.51340146 609.76529489 -114.16002574 606.83840142 -112.80419922 603.91259766 C-110.65108581 599.25605884 -108.56335343 594.57192135 -106.5 589.875 C-103.75355137 583.65541874 -100.91543652 577.48333787 -98.02734375 571.328125 C-90.6017591 555.49600288 -83.31837736 539.60367679 -76.27270508 523.59863281 C-73.23127558 516.70465452 -70.08762992 509.86363193 -66.88989258 503.04125977 C-63.75823104 496.35576762 -60.67735832 489.64673927 -57.59326172 482.93920898 C-56.86510023 481.35621388 -56.13626022 479.77353071 -55.40673828 478.19116211 C-51.30932178 469.30364002 -47.25486533 460.40251446 -43.36938477 451.41993713 C-40.65949409 445.16332401 -37.76274821 438.99807866 -34.85839844 432.83007812 C-32.54555271 427.89916472 -30.27757868 422.94726798 -28 418 C-27.34 418 -26.68 418 -26 418 C-24.484375 420.23828125 -24.484375 420.23828125 -22.75 423.3125 C-21.81800781 424.95798828 -21.81800781 424.95798828 -20.8671875 426.63671875 C-20.25101563 427.74660156 -19.63484375 428.85648438 -19 430 C-18.19949219 431.43279297 -18.19949219 431.43279297 -17.3828125 432.89453125 C-15.07519064 437.07335945 -12.84661066 441.27397819 -10.75 445.5625 C-7.16409332 452.82715238 -3.11587464 459.84848017 0.83691406 466.91748047 C2.33861783 469.60629935 3.8302274 472.30042062 5.3125 475 C5.72113281 475.7425 6.12976562 476.485 6.55078125 477.25 C7.85265999 479.72041142 9.10024704 482.20890557 10.33984375 484.7109375 C12.85258215 489.75408671 15.52716834 494.69293599 18.25 499.625 C23.41796524 509.03925515 28.47408466 518.50951401 33.5 528 C38.78578476 537.97811568 44.11098708 547.93077727 49.54077148 557.83154297 C53.59737108 565.23647993 57.58402334 572.67794144 61.5625 580.125 C67.62191708 591.46496068 73.77660209 602.74926778 80 614 C82.84274468 619.14603462 85.66695507 624.28061847 88.25 629.5625 C91.83590668 636.82715238 95.88412536 643.84848017 99.83691406 650.91748047 C103.0905684 656.74318817 106.31833446 662.56729469 109.25 668.5625 C112.83733383 675.83004361 116.88707949 682.85437078 120.84130859 689.92626953 C124.23236226 695.99529816 127.56170386 702.07081278 130.625 708.3125 C133.89777415 714.91724576 137.44370867 721.36387488 140.98730469 727.82641602 C145.16091962 735.44408584 149.27912826 743.09029078 153.375 750.75 C154.00915901 751.93524113 154.64335507 753.12046243 155.27758789 754.30566406 C156.23279588 756.09077132 157.18797755 757.87589262 158.14305115 759.66107178 C168.83055831 779.74099341 168.83055831 779.74099341 179.875 799.625 C182.61122849 804.42996447 185.18767715 809.28527374 187.625 814.25 C193.43276563 826.074874 199.78618956 837.62101557 206.03790283 849.21508789 C207.55687213 852.03312622 209.07326219 854.85255113 210.58984375 857.671875 C213.47981857 863.04313315 216.37250284 868.41292629 219.26611328 873.78222656 C222.17870265 879.18745437 225.0892423 884.59378568 228 890 C229.16665696 892.16667189 230.33332363 894.33333856 231.5 896.5 C238.49999999 909.49999999 238.49999999 909.49999999 240.25073242 912.75146484 C241.41484116 914.91331145 242.57906601 917.07509553 243.7434082 919.23681641 C246.70017707 924.72671747 249.65478193 930.21776479 252.60546875 935.7109375 C253.7993911 937.932339 254.99340059 940.15369367 256.1875 942.375 C256.76258301 943.44556641 257.33766602 944.51613281 257.93017578 945.61914062 C260.69949711 950.76498294 263.48803894 955.89847461 266.32421875 961.0078125 C266.84024658 961.93803223 267.35627441 962.86825195 267.88793945 963.82666016 C268.85518664 965.56551366 269.82618166 967.30228949 270.80151367 969.03662109 C271.43730347 970.1786499 271.43730347 970.1786499 272.0859375 971.34375 C272.4576709 972.00568359 272.8294043 972.66761719 273.21240234 973.34960938 C274 975 274 975 274 977 C193.15 977 112.3 977 29 977 C23.83304052 966.09197444 18.76514246 955.2549609 13.91015625 944.22265625 C11.63902051 939.13424995 9.11032845 934.19184143 6.58203125 929.2265625 C4.62901446 925.24337271 2.97435794 921.17341174 1.3125 917.0625 C-0.67601326 912.42263573 -3.00834851 907.96620206 -5.296875 903.46875 C-7.34832681 899.29056374 -9.13547711 895.04063484 -10.859375 890.71875 C-12.1040732 887.75193512 -13.56116268 884.87767463 -15 882 C-106.74 882 -198.48 882 -293 882 C-303.08402622 903.4612111 -303.08402622 903.4612111 -313 925 C-313.976682 927.12614313 -314.95538759 929.25135983 -315.9375 931.375 C-316.69353516 933.01082031 -316.69353516 933.01082031 -317.46484375 934.6796875 C-318.22474609 936.32324219 -318.22474609 936.32324219 -319 938 C-320.00016474 940.16659063 -321.00016555 942.33325693 -322 944.5 C-322.495 945.57121094 -322.99 946.64242187 -323.5 947.74609375 C-324.50396199 949.9239592 -325.50393409 952.10366816 -326.5 954.28515625 C-327.2425 955.90744141 -327.2425 955.90744141 -328 957.5625 C-328.433125 958.51253906 -328.86625 959.46257813 -329.3125 960.44140625 C-331.79108169 965.66823013 -334.41299188 970.82598376 -337 976 C-417.52 976 -498.04 976 -581 976 C-580.27838438 972.39192189 -579.86067407 970.34637683 -578.31459045 967.26168823 C-577.96585876 966.5586557 -577.61712708 965.85562317 -577.25782776 965.13128662 C-576.87505173 964.37494934 -576.4922757 963.61861206 -576.09790039 962.83935547 C-575.49267044 961.62582901 -575.49267044 961.62582901 -574.87521362 960.38778687 C-573.53848167 957.7113142 -572.19319321 955.03924307 -570.84765625 952.3671875 C-569.90850329 950.49194363 -568.96982588 948.61646153 -568.03160095 946.74075317 C-566.05880921 942.79977599 -564.08210756 938.86079454 -562.10229492 934.92333984 C-559.59249185 929.93172781 -557.0894237 924.93678075 -554.5890131 919.9404583 C-552.17772868 915.12311344 -549.76273611 910.30763037 -547.34765625 905.4921875 C-546.89968248 904.59812069 -546.45170872 903.70405388 -545.99015999 902.78289413 C-541.42125251 893.66980107 -536.80790351 884.58671757 -532.03491211 875.57861328 C-527.05734031 866.17959587 -522.28365649 856.68432936 -517.54414368 847.16345215 C-516.04718559 844.15646457 -514.54751616 841.15084177 -513.04724121 838.14550781 C-509.86253505 831.76481394 -506.68101061 825.38253687 -503.5 819 C-499.80605172 811.58827965 -496.11070389 804.1772636 -492.41194153 796.76794434 C-490.95372535 793.84515759 -489.49797309 790.92115329 -488.0423584 787.99707031 C-483.38208939 778.65120488 -478.63775104 769.3610421 -473.74660492 760.13392639 C-469.27166127 751.66845283 -464.99599222 743.10571839 -460.7293396 734.53384399 C-459.26599009 731.59406445 -457.79992289 728.65565306 -456.33325195 725.7175293 C-453.21987381 719.47949569 -450.10967897 713.2398783 -447 707 C-443.3886605 699.75349026 -439.77591776 692.50768678 -436.15975952 685.26358032 C-434.73478048 682.40727167 -433.31226688 679.54974507 -431.88989258 676.69213867 C-427.68387798 668.25672446 -423.42838291 659.85566773 -419.01367188 651.52734375 C-414.04125332 642.14626974 -409.2755172 632.66797891 -404.54414368 623.16345215 C-403.04718559 620.15646457 -401.54751616 617.15084177 -400.04724121 614.14550781 C-396.86253505 607.76481394 -393.68101061 601.38253687 -390.5 595 C-386.80605172 587.58827965 -383.11070389 580.1772636 -379.41194153 572.76794434 C-377.95372535 569.84515759 -376.49797309 566.92115329 -375.0423584 563.99707031 C-370.38208939 554.65120488 -365.63775104 545.3610421 -360.74660492 536.13392639 C-356.27166127 527.66845283 -351.99599222 519.10571839 -347.7293396 510.53384399 C-346.26599009 507.59406445 -344.79992289 504.65565306 -343.33325195 501.7175293 C-340.21987381 495.47949569 -337.10967897 489.2398783 -334 483 C-330.3886605 475.75349026 -326.77591776 468.50768678 -323.15975952 461.26358032 C-321.73478048 458.40727167 -320.31226688 455.54974507 -318.88989258 452.69213867 C-314.25107307 443.3887456 -309.52425936 434.14271404 -304.65685368 424.95683575 C-300.64868186 417.37577289 -296.80708241 409.71610274 -292.9951458 402.03489113 C-291.76346724 399.55362196 -290.52860347 397.07395913 -289.29298401 394.59465027 C-285.78838526 387.56143692 -282.28854485 380.52586342 -278.79223633 373.48852539 C-276.63154787 369.14005785 -274.46676084 364.7936498 -272.29960823 360.4484005 C-271.48769068 358.81845464 -270.67727938 357.18775739 -269.86855888 355.55622292 C-265.1453019 346.02802279 -260.23241021 336.65816404 -254.94973755 327.4271698 C-252.33946594 322.83893995 -249.87270689 318.1827895 -247.4375 313.5 C-247.00115234 312.66597656 -246.56480469 311.83195312 -246.11523438 310.97265625 C-245.07461866 308.98290751 -244.03617371 306.99206435 -243 305 C-243.70833984 304.73300293 -244.41667969 304.46600586 -245.14648438 304.19091797 C-248.11511855 302.95195514 -250.84695888 301.51167405 -253.65625 299.9453125 C-254.74993896 299.33695557 -255.84362793 298.72859863 -256.97045898 298.10180664 C-258.14706459 297.44303527 -259.32357597 296.78409558 -260.5 296.125 C-261.72397389 295.44185797 -262.9480144 294.75883528 -264.17211914 294.07592773 C-273.86779269 288.66027234 -283.51929338 283.16882435 -293.14892578 277.63671875 C-298.72030057 274.4383546 -304.29777348 271.25064466 -309.875 268.0625 C-310.46755585 267.72365784 -311.06011169 267.38481567 -311.67062378 267.03570557 C-319.93313715 262.31149237 -328.21043715 257.61412027 -336.5 252.9375 C-339.20878876 251.40579001 -341.91723715 249.87348066 -344.62548828 248.34082031 C-346.77742187 247.12568364 -348.93324581 245.91776646 -351.08984375 244.7109375 C-352.19457031 244.08445312 -353.29929688 243.45796875 -354.4375 242.8125 C-355.79681641 242.04873047 -355.79681641 242.04873047 -357.18359375 241.26953125 C-357.78300781 240.85058594 -358.38242187 240.43164062 -359 240 C-359 239.34 -359 238.68 -359 238 C-357.61894226 236.85368347 -357.61894226 236.85368347 -355.64331055 235.57104492 C-354.89945602 235.08302902 -354.1556015 234.59501312 -353.38920593 234.09220886 C-352.56338516 233.56033463 -351.73756439 233.02846039 -350.88671875 232.48046875 C-349.59813713 231.63812431 -349.59813713 231.63812431 -348.28352356 230.77876282 C-346.41015332 229.55483733 -344.53478786 228.33396178 -342.65771484 227.11572266 C-337.58889253 223.82511287 -332.53524187 220.51135317 -327.48046875 217.19921875 C-325.91587418 216.17506363 -325.91587418 216.17506363 -324.31967163 215.13021851 C-313.97939657 208.351979 -303.73434481 201.43669193 -293.5 194.5 C-277.00869102 183.33319417 -260.42002325 172.32251113 -243.77734375 161.3828125 C-241.95309848 160.1836341 -240.12887938 158.98441588 -238.3046875 157.78515625 C-237.41875916 157.20275177 -236.53283081 156.62034729 -235.62005615 156.02029419 C-227.55634926 150.71551992 -219.5237788 145.36490702 -211.5 140 C-202.58586576 134.03977819 -193.65570625 128.10535791 -184.6953125 122.21484375 C-183.79826599 121.62510773 -182.90121948 121.0353717 -181.97698975 120.42776489 C-180.12936576 119.21321835 -178.28172971 117.99869017 -176.43408203 116.78417969 C-159.8216241 105.86321395 -143.28842432 94.83446024 -126.82550049 83.68942261 C-112.37920969 73.91278792 -97.84542966 64.27716351 -83.26391602 54.70361328 C-67.35791531 44.25699002 -51.55598536 33.6626354 -35.80859375 22.97851562 C-27.18813335 17.13479397 -18.53555029 11.34602764 -9.8125 5.65625 C-8.94407471 5.08821655 -8.07564941 4.52018311 -7.1809082 3.93493652 C-6.38515381 3.41822388 -5.58939941 2.90151123 -4.76953125 2.36914062 C-3.71149292 1.68108337 -3.71149292 1.68108337 -2.63208008 0.97912598 C-1 0 -1 0 0 0 Z " fill="#000000" transform="translate(5800,281)"/>
<path d="M0 0 C90.9975 -0.04125 181.995 -0.0825 275.75 -0.125 C318.86092285 -0.15231201 318.86092285 -0.15231201 362.84277344 -0.18017578 C397.91845703 -0.18920898 397.91845703 -0.18920898 414.33502197 -0.19088745 C426.56407926 -0.19287461 438.79311435 -0.20149064 451.02216542 -0.21334685 C463.50633152 -0.22528616 475.99048369 -0.22966561 488.47465529 -0.2268899 C495.24412224 -0.22558456 502.01354246 -0.22756807 508.78300428 -0.23843026 C514.91404023 -0.24820797 521.04500516 -0.2486175 527.17604446 -0.24180222 C529.38312944 -0.2409595 531.59021899 -0.24344894 533.79729509 -0.24976516 C591.81368964 -0.40592926 643.03496792 19.75244543 685 60 C685.94875 60.89589844 686.8975 61.79179688 687.875 62.71484375 C713.4643017 87.46813133 732.21942561 120.60871675 741 155 C741.37018834 156.3817533 741.74128894 157.76326251 742.11328125 159.14453125 C752.60439762 198.78753824 750.43365162 243.57097171 736 282 C735.43345703 283.60101562 735.43345703 283.60101562 734.85546875 285.234375 C727.35209532 305.81218842 715.94937572 325.14899008 702 342 C701.5241748 342.57733887 701.04834961 343.15467773 700.55810547 343.74951172 C690.96887713 355.31841142 680.82981326 365.68342176 669 375 C668.03707031 375.79148437 667.07414062 376.58296875 666.08203125 377.3984375 C657.64116667 384.18108407 648.59754372 389.55347727 639.13769531 394.79980469 C637.74102922 395.5839539 636.35425976 396.38607089 634.97949219 397.20800781 C630.30492757 400 630.30492757 400 627 400 C633.44805673 409.09135949 640.28773452 417.86011843 647.15332031 426.63720703 C650.10928363 430.41930817 653.05424873 434.20994358 656 438 C657.16661028 439.50004385 658.33327704 441.00004379 659.5 442.5 C675.83333333 463.5 692.16666667 484.5 708.5 505.5 C709.07782227 506.24290283 709.65564453 506.98580566 710.25097656 507.7512207 C711.41443312 509.24711662 712.57784478 510.74304745 713.74121094 512.23901367 C716.70661998 516.05209776 719.67287262 519.86452064 722.640625 523.67578125 C728.75668658 531.53188457 734.85967511 539.39701615 740.9140625 547.30078125 C742.33334127 549.13733861 743.78828758 550.94675776 745.2734375 552.73046875 C747 555 747 555 747 557 C717.64938227 557.36542419 688.29892648 557.64836907 658.94649725 557.81704527 C655.47702307 557.83705529 652.00755339 557.85776457 648.53808594 557.87890625 C647.84741104 557.88310322 647.15673613 557.88730018 646.44513169 557.89162433 C635.27837749 557.961146 624.11294837 558.08723887 612.9469789 558.23444474 C601.47953365 558.38435809 590.0131609 558.47180189 578.54470754 558.50541592 C572.10655579 558.52624931 565.67140341 558.57507741 559.23421478 558.69168091 C553.16917401 558.80064871 547.10835377 558.83371977 541.04242706 558.8097229 C538.82190463 558.81410937 536.60123492 558.8457408 534.38156128 558.9072876 C518.07985298 559.33696233 518.07985298 559.33696233 512.96828556 555.45835495 C509.35732375 551.73514907 506.72909886 547.56118204 504.21336222 543.05030632 C502.245708 539.72541799 499.81753373 536.79579568 497.375 533.8125 C496.46038381 532.65902113 495.54738841 531.50425343 494.63671875 530.34765625 C494.19505371 529.78836426 493.75338867 529.22907227 493.29833984 528.65283203 C490.83033118 525.51097068 488.40410251 522.33698984 485.97338867 519.16625977 C482.40040197 514.51004417 478.7954558 509.87914979 475.1875 505.25 C470.053001 498.6597187 464.96094857 492.0387763 459.89526367 485.39550781 C455.95983053 480.24033446 451.98787217 475.11468815 448 470 C442.93486099 463.50365173 437.91216749 456.97685646 432.91870117 450.42529297 C428.15409882 444.1819203 423.33220874 437.98387673 418.4921875 431.79882812 C417.65494141 430.72665039 417.65494141 430.72665039 416.80078125 429.6328125 C416.30747314 429.00262207 415.81416504 428.37243164 415.3059082 427.72314453 C414.14518197 426.19156746 413.06597932 424.59896898 412 423 C409.388112 422.69322543 407.01024499 422.58434373 404.39450073 422.60127258 C403.60058272 422.59462576 402.80666472 422.58797893 401.98868859 422.58113068 C399.3137826 422.56239655 396.63931981 422.5651129 393.96435547 422.56762695 C392.05274824 422.55861613 390.14114681 422.5482906 388.22955322 422.53674316 C383.02734315 422.50906712 377.82524238 422.49987431 372.6229682 422.49388909 C367.19099402 422.48453292 361.75910239 422.45833188 356.32717896 422.43388367 C346.03538175 422.39013887 335.7436005 422.36164099 325.45173848 422.33856028 C311.54836244 422.30650462 297.64508146 422.25101949 283.74177742 422.19681454 C261.82787978 422.11199901 239.91401975 422.05859364 218 422 C218 466.55 218 511.1 218 557 C146.06 557 74.12 557 0 557 C0 373.19 0 189.38 0 0 Z " fill="#000000" transform="translate(6090,700)"/>
<path d="M0 0 C90.9975 -0.04125 181.995 -0.0825 275.75 -0.125 C318.86092285 -0.15231201 318.86092285 -0.15231201 362.84277344 -0.18017578 C397.91845703 -0.18920898 397.91845703 -0.18920898 414.33502197 -0.19088745 C426.56407926 -0.19287461 438.79311435 -0.20149064 451.02216542 -0.21334685 C463.50633152 -0.22528616 475.99048369 -0.22966561 488.47465529 -0.2268899 C495.24412224 -0.22558456 502.01354246 -0.22756807 508.78300428 -0.23843026 C514.91404023 -0.24820797 521.04500516 -0.2486175 527.17604446 -0.24180222 C529.38312944 -0.2409595 531.59021899 -0.24344894 533.79729509 -0.24976516 C592.70879232 -0.40833863 645.05692841 20.57716282 687.30615234 62.12084961 C692.08181839 66.89032065 696.85181559 71.66662005 701 77 C701 77.66 701 78.32 701 79 C701.66 79 702.32 79 703 79 C717.65616228 97.21278798 727.8329774 117.67641868 736.01611328 139.44482422 C736.84134872 141.58797908 737.71754919 143.68453092 738.65234375 145.78125 C756.95174504 189.48764611 749.80598709 248.47148435 732.5690918 291.15332031 C723.11040176 313.58817809 709.53237201 333.7094841 693.14453125 351.6328125 C691.25461926 353.71894486 689.43688253 355.84649761 687.625 358 C672.48255531 375.24652015 650.32669534 391.38363425 629 400 C628.34 400 627.68 400 627 400 C633.91468025 409.32933049 641.02506479 418.49930239 648.16943359 427.65332031 C651.11722966 431.43222345 654.05836276 435.21630207 657 439 C658.16663284 440.50002631 659.33329955 442.00002627 660.5 443.5 C662.83333333 446.5 665.16666667 449.5 667.5 452.5 C668.07782227 453.24290283 668.65564453 453.98580566 669.25097656 454.7512207 C670.41443312 456.24711662 671.57784478 457.74304745 672.74121094 459.23901367 C675.70661998 463.05209776 678.67287262 466.86452064 681.640625 470.67578125 C687.57983564 478.30459492 693.50235967 485.94506643 699.390625 493.61328125 C704.29394626 499.98721641 709.2448486 506.32446734 714.18554688 512.66943359 C715.96287063 514.95230934 717.73942812 517.23577866 719.515625 519.51953125 C720.0916748 520.26017822 720.66772461 521.0008252 721.26123047 521.76391602 C722.41672984 523.24990573 723.57200474 524.73607 724.72705078 526.22241211 C727.7621966 530.12724559 730.80278919 534.02766933 733.8515625 537.921875 C734.48320312 538.73011719 735.11484375 539.53835938 735.765625 540.37109375 C736.96962686 541.91150789 738.17525248 543.45065483 739.3828125 544.98828125 C739.929375 545.68824219 740.4759375 546.38820313 741.0390625 547.109375 C741.51553223 547.71749023 741.99200195 548.32560547 742.48291016 548.95214844 C744.42217169 551.56987063 746.19937158 554.2856022 748 557 C718.52199961 557.36542035 689.04410662 557.64836736 659.56431498 557.81704527 C656.07981954 557.8370553 652.59532859 557.85776458 649.11083984 557.87890625 C648.07034157 557.8852017 648.07034157 557.8852017 647.00882313 557.89162433 C635.79357305 557.96114686 624.57964226 558.08724025 613.36517349 558.23444474 C601.84803947 558.38435517 590.33183104 558.47180161 578.81374049 558.50541592 C572.34764883 558.5262497 565.88454347 558.57508064 559.41941071 558.69168091 C553.32810988 558.80064451 547.24101138 558.83372051 541.14882851 558.8097229 C538.91863175 558.81410955 536.68828842 558.84574324 534.45893669 558.9072876 C518.0586227 559.33766957 518.0586227 559.33766957 512.93472385 555.42153358 C509.2894552 551.65248294 506.58877005 547.44180732 504.06388235 542.86730099 C502.67166619 540.42371631 500.9988243 538.27293481 499.22265625 536.09765625 C498.69639648 535.42436279 498.17013672 534.75106934 497.62792969 534.05737305 C497.11133789 533.39906494 496.59474609 532.74075684 496.0625 532.0625 C491.42669595 526.12797195 486.81922606 520.17345651 482.25 514.1875 C481.70923828 513.47916016 481.16847656 512.77082031 480.61132812 512.04101562 C479.56161211 510.66574665 478.51196778 509.29042296 477.46240234 507.91503906 C471.41321673 499.99353457 465.31301227 492.11253551 459.1875 484.25 C454.05314626 477.6596044 448.96094977 471.03877788 443.89526367 464.39550781 C439.3872383 458.49027415 434.82802588 452.62594877 430.2590332 446.76782227 C425.46507806 440.61473879 420.720822 434.42465273 415.99804688 428.21679688 C415.48693359 427.54583984 414.97582031 426.87488281 414.44921875 426.18359375 C413.99893311 425.59118896 413.54864746 424.99878418 413.0847168 424.38842773 C412.06253427 423.02190496 412.06253427 423.02190496 411 422 C408.50886337 421.88989101 406.04485175 421.84504023 403.55271912 421.84178162 C402.76373909 421.83684364 401.97475906 421.83190566 401.16187054 421.82681805 C398.49780851 421.81136602 395.83377072 421.80306171 393.16967773 421.79467773 C391.26807438 421.78510525 389.36647318 421.77509556 387.46487427 421.76467896 C382.28536034 421.73755551 377.10583723 421.71658636 371.92629123 421.69667697 C366.51969638 421.67486313 361.11313008 421.64745201 355.70655823 421.62062073 C345.46076778 421.5706314 335.21496154 421.5257158 324.96914011 421.48259836 C311.1293795 421.42406556 297.28965638 421.35774531 283.44992924 421.29184818 C261.63331139 421.18817592 239.81666158 421.09495167 218 421 C218 465.88 218 510.76 218 557 C146.06 557 74.12 557 0 557 C0 373.19 0 189.38 0 0 Z " fill="#000000" transform="translate(2232,700)"/>
<path d="M0 0 C1.96861816 -0.00404084 3.93723592 -0.00827757 5.90585327 -0.01269531 C12.16250532 -0.02406258 18.4191222 -0.02262684 24.67578125 -0.01953125 C25.73997662 -0.01941166 26.80417198 -0.01929207 27.90061569 -0.01916885 C59.63166752 -0.01464664 91.31312191 0.06796679 122.98828125 2.16796875 C123.8363031 2.22359985 124.68432495 2.27923096 125.55804443 2.33654785 C137.38281472 3.1211772 149.18827785 4.07441695 160.98828125 5.16796875 C161.67363953 5.23091125 162.3589978 5.29385376 163.06512451 5.35870361 C186.4603009 7.51419231 209.09052799 10.93441876 231.98828125 16.16796875 C232.91527832 16.37711914 233.84227539 16.58626953 234.79736328 16.80175781 C246.37623988 19.42222962 257.74756749 22.34328546 268.98828125 26.16796875 C270.18710938 26.56725586 270.18710938 26.56725586 271.41015625 26.97460938 C308.32403975 39.3631324 346.67903926 59.63505021 370.98828125 91.16796875 C370.98828125 91.82796875 370.98828125 92.48796875 370.98828125 93.16796875 C371.64828125 93.16796875 372.30828125 93.16796875 372.98828125 93.16796875 C373.31828125 94.48796875 373.64828125 95.80796875 373.98828125 97.16796875 C374.64828125 97.16796875 375.30828125 97.16796875 375.98828125 97.16796875 C393.25770521 120.03828696 403.33654884 148.41740816 409.30078125 176.16796875 C409.53958008 177.25948242 409.53958008 177.25948242 409.78320312 178.37304688 C411.07604968 184.70059102 411.4411464 190.60235056 411.98828125 197.16796875 C336.41828125 197.16796875 260.84828125 197.16796875 182.98828125 197.16796875 C180.51328125 192.71296875 180.51328125 192.71296875 177.98828125 188.16796875 C175.96272749 185.80526515 174.02952733 183.6785732 171.80078125 181.54296875 C170.93888184 180.70523926 170.93888184 180.70523926 170.05957031 179.85058594 C165.36605142 175.37123986 160.58057475 171.48766586 154.98828125 168.16796875 C154.41190918 167.82314453 153.83553711 167.47832031 153.24169922 167.12304688 C127.60507454 152.02497855 98.34630171 146.89765279 68.98828125 145.16796875 C68.13282715 145.11157227 67.27737305 145.05517578 66.39599609 144.99707031 C14.45913675 141.6386126 -59.50076837 137.82379273 -103.01171875 171.16796875 C-103.57375 171.74160156 -104.13578125 172.31523438 -104.71484375 172.90625 C-106.01171875 174.16796875 -106.01171875 174.16796875 -108.01171875 174.16796875 C-108.28757812 174.89886719 -108.5634375 175.62976563 -108.84765625 176.3828125 C-109.93755989 178.99053497 -111.22367746 181.28863424 -112.63671875 183.73046875 C-115.55036722 189.54042255 -116.07940151 194.77092032 -115.01171875 201.16796875 C-113.29518147 206.25155991 -109.60265459 208.70529113 -105.07421875 211.29296875 C-96.68448194 215.16753932 -87.65862034 216.8510329 -78.63769531 218.64501953 C-76.41060667 219.08853235 -74.19185517 219.55817943 -71.97265625 220.0390625 C-62.937473 221.84422851 -53.83898072 222.76468115 -44.671875 223.6015625 C-43.96795876 223.66608171 -43.26404251 223.73060093 -42.53879547 223.79707527 C-24.43493989 225.43503733 -6.29371127 226.37013562 11.8576355 227.30227661 C17.88020198 227.61160782 23.90216986 227.93169251 29.92407227 228.25366211 C38.07768951 228.68911079 46.23140407 229.12263898 54.38525391 229.55371094 C88.15652932 231.34049969 88.15652932 231.34049969 103.92578125 232.23046875 C104.99047386 232.29051779 104.99047386 232.29051779 106.07667542 232.35177994 C126.98564225 233.53646108 147.77056226 235.16766444 168.55322266 237.75830078 C173.58508442 238.35840484 178.62745064 238.79592772 183.67578125 239.23046875 C191.33300005 239.91620112 198.84704601 241.04757949 206.4140625 242.390625 C210.44724566 243.09794023 214.49062211 243.65608215 218.54956055 244.19287109 C229.84457051 245.69859242 240.88228255 247.93366854 251.98291016 250.48974609 C255.00342261 251.1713857 258.03063354 251.80846398 261.0625 252.4375 C286.15677184 257.75975426 311.01544732 265.67166674 333.98828125 277.16796875 C334.79394531 277.56338867 335.59960938 277.95880859 336.4296875 278.36621094 C350.42775049 285.27214108 362.64593941 293.35246802 374.55078125 303.41796875 C375.1228833 303.90120605 375.69498535 304.38444336 376.28442383 304.88232422 C379.93905345 308.05050143 382.94011749 311.41482203 385.98828125 315.16796875 C386.67792969 315.85117187 387.36757812 316.534375 388.078125 317.23828125 C393.08722328 322.2985973 397.09335013 328.6888372 399.98828125 335.16796875 C400.28089844 335.79703125 400.57351563 336.42609375 400.875 337.07421875 C401.95169469 339.42337079 402.97379921 341.79128467 403.98828125 344.16796875 C404.61283203 345.58916016 404.61283203 345.58916016 405.25 347.0390625 C416.47508793 374.03994969 414.67417441 407.63016886 405.98828125 435.16796875 C405.64925781 436.32425781 405.31023438 437.48054688 404.9609375 438.671875 C403.05079722 445.09093011 400.92010016 451.15002468 397.98828125 457.16796875 C397.21484375 458.80765625 397.21484375 458.80765625 396.42578125 460.48046875 C393.27034075 467.06655437 389.84905911 473.20820713 385.46875 479.08203125 C384.07341761 481.04801408 383.00083999 482.98479333 381.98828125 485.16796875 C381.32828125 485.16796875 380.66828125 485.16796875 379.98828125 485.16796875 C379.72273438 485.73902344 379.4571875 486.31007813 379.18359375 486.8984375 C375.26726473 494.33434325 369.37825243 499.88230467 362.98828125 505.16796875 C362.075625 505.97878906 361.16296875 506.78960938 360.22265625 507.625 C346.27839827 519.95676366 330.47040952 529.6106561 313.98828125 538.16796875 C312.99489746 538.68520508 312.99489746 538.68520508 311.98144531 539.21289062 C280.66350558 555.27096467 245.42465283 564.65075982 210.98828125 571.16796875 C209.28478516 571.4920874 209.28478516 571.4920874 207.546875 571.82275391 C150.8333516 582.39659712 93.54412815 584.69762788 35.98508179 584.49713445 C31.25800794 584.48167716 26.5310497 584.47899963 21.80395508 584.48364258 C-52.1376922 584.55389199 -52.1376922 584.55389199 -75.01171875 581.16796875 C-76.71184522 581.02611927 -78.4138939 580.9052487 -80.1171875 580.80859375 C-115.52727936 578.57235372 -152.06549 573.71699601 -186.01171875 563.16796875 C-187.55721439 562.70156676 -189.10279018 562.23543032 -190.6484375 561.76953125 C-195.45873558 560.30236577 -200.24013075 558.75619916 -205.01171875 557.16796875 C-205.76501465 556.91853516 -206.51831055 556.66910156 -207.29443359 556.41210938 C-240.76424169 545.16151067 -273.48925895 527.04266315 -297.01171875 500.16796875 C-297.01171875 499.50796875 -297.01171875 498.84796875 -297.01171875 498.16796875 C-298.00171875 497.83796875 -298.99171875 497.50796875 -300.01171875 497.16796875 C-301.46289062 495.61181641 -301.46289062 495.61181641 -302.98046875 493.58203125 C-303.54620605 492.82607666 -304.11194336 492.07012207 -304.69482422 491.29125977 C-305.29439941 490.46682373 -305.89397461 489.6423877 -306.51171875 488.79296875 C-307.13320801 487.93952881 -307.75469727 487.08608887 -308.39501953 486.20678711 C-328.17037647 458.6059014 -344.20523128 421.68403718 -344.01171875 387.16796875 C-315.03402894 387.03114654 -286.0563706 386.92493845 -257.07842244 386.86157677 C-253.65872641 386.85407237 -250.23903102 386.84630645 -246.81933594 386.83837891 C-246.13852501 386.83680504 -245.45771408 386.83523118 -244.75627252 386.83360963 C-233.72698116 386.80748878 -222.69787709 386.76017435 -211.66869691 386.70505197 C-200.35499636 386.64897844 -189.04143478 386.61607292 -177.72758651 386.60343778 C-171.37130713 386.59560186 -165.0154528 386.57713077 -158.65930939 386.53358841 C-152.68060694 386.49296225 -146.70250595 386.48027971 -140.72367859 386.48932266 C-138.52579737 386.48766756 -136.32789672 386.47567381 -134.13013458 386.4527359 C-131.13550954 386.42300576 -128.1431734 386.43001267 -125.14849854 386.44644165 C-124.27301369 386.4289646 -123.39752884 386.41148755 -122.49551415 386.3934809 C-120.17885706 386.42798128 -118.23372886 386.51103052 -116.01171875 387.16796875 C-112.01171875 391.71101051 -112.01171875 391.71101051 -112.01171875 395.16796875 C-111.35171875 395.16796875 -110.69171875 395.16796875 -110.01171875 395.16796875 C-109.10964375 396.55577644 -108.20872486 397.94434471 -107.3125 399.3359375 C-91.63032491 421.42284476 -59.52277188 431.37727678 -34.32421875 436.04296875 C-31.89010242 436.43933842 -29.45257291 436.81546027 -27.01171875 437.16796875 C-25.21347656 437.45414063 -25.21347656 437.45414063 -23.37890625 437.74609375 C-5.44500584 440.41142927 12.67653503 440.3303882 30.76660156 440.29833984 C34.35095467 440.29298716 37.93518195 440.29831489 41.51953125 440.3046875 C60.43243855 440.31185333 79.23144418 440.0288483 97.98828125 437.41796875 C99.26082764 437.24313965 100.53337402 437.06831055 101.84448242 436.88818359 C126.89024004 433.29285712 155.99696436 427.16627561 174.98828125 409.16796875 C175.31828125 408.50796875 175.64828125 407.84796875 175.98828125 407.16796875 C176.64828125 407.16796875 177.30828125 407.16796875 177.98828125 407.16796875 C178.66389873 405.50491035 179.32761406 403.8370227 179.98828125 402.16796875 C180.52453125 400.97171875 181.06078125 399.77546875 181.61328125 398.54296875 C183.78954951 392.72117499 183.84520499 386.44889776 182.28125 380.4609375 C180.59002966 377.46170384 179.22061296 377.20194229 175.98828125 376.16796875 C174.19201647 375.21828193 172.40066883 374.25925952 170.61328125 373.29296875 C153.19015106 364.54949316 132.2285381 362.93012561 113.05078125 361.10546875 C111.75439728 360.97898453 111.75439728 360.97898453 110.43182373 360.84994507 C94.57919906 359.31594237 78.72058123 358.40569887 62.80883789 357.76342773 C61.96445663 357.72911652 61.12007538 357.6948053 60.25010681 357.65945435 C58.69722211 357.59778811 57.14421796 357.53901116 55.59107971 357.48410034 C51.57959885 357.33013357 47.60203181 357.05511996 43.60546875 356.67236328 C38.16995777 356.15786063 32.7482436 355.89554281 27.29296875 355.703125 C25.27033638 355.62587787 23.24771298 355.54839543 21.22509766 355.47070312 C19.66580536 355.41209106 19.66580536 355.41209106 18.07501221 355.35229492 C-11.6574361 354.22449486 -11.6574361 354.22449486 -26.18383789 352.91601562 C-33.90936042 352.22483754 -41.63917291 351.77154409 -49.38290405 351.35037231 C-66.6438369 350.40589484 -83.81904799 348.97012573 -101.01171875 347.16796875 C-102.06488281 347.0587207 -103.11804687 346.94947266 -104.203125 346.83691406 C-131.20650535 343.97638648 -158.5121791 340.15836907 -185.01171875 334.16796875 C-185.92324707 333.96768066 -186.83477539 333.76739258 -187.77392578 333.56103516 C-226.98496095 324.88843114 -267.91376787 312.25256039 -300.01171875 287.16796875 C-300.56118164 286.73887207 -301.11064453 286.30977539 -301.67675781 285.86767578 C-324.04305689 268.17819357 -338.87238409 243.27978888 -344.01171875 215.16796875 C-344.77673505 208.57917385 -344.69117701 201.97713606 -344.57421875 195.35546875 C-344.56618225 194.48566376 -344.55814575 193.61585876 -344.54986572 192.71969604 C-344.35554277 172.76821525 -341.58234473 154.69136426 -334.01171875 136.16796875 C-333.5955127 135.13567139 -333.5955127 135.13567139 -333.17089844 134.08251953 C-325.54015689 115.34577873 -314.86697309 99.83678784 -301.01171875 85.16796875 C-300.32851562 84.43191406 -299.6453125 83.69585938 -298.94140625 82.9375 C-292.54441916 76.26905405 -285.42453436 70.65054999 -278.01171875 65.16796875 C-277.46370605 64.7596582 -276.91569336 64.35134766 -276.35107422 63.93066406 C-257.30614661 49.95179024 -235.18996338 40.00784371 -213.01171875 32.16796875 C-211.54871338 31.64662354 -211.54871338 31.64662354 -210.05615234 31.11474609 C-195.572263 25.99932007 -180.94167276 21.76651297 -166.01171875 18.16796875 C-165.20508789 17.97219238 -164.39845703 17.77641602 -163.56738281 17.57470703 C-153.64534895 15.19300288 -143.69839344 13.39010893 -133.609375 11.87890625 C-129.51441751 11.26115073 -125.4549018 10.5065529 -121.38671875 9.73046875 C-100.86668505 6.0033808 -79.97507031 4.11418163 -59.19921875 2.48046875 C-58.43267975 2.41980225 -57.66614075 2.35913574 -56.87637329 2.29663086 C-37.9185464 0.81412079 -19.01610173 0.00975702 0 0 Z " fill="#000000" transform="translate(3666.01171875,685.83203125)"/>
<path d="M0 0 C215.16 0 430.32 0 652 0 C652 47.19 652 94.38 652 143 C508.78 143 365.56 143 218 143 C218 166.43 218 189.86 218 214 C361.22 214 504.44 214 652 214 C652 256.9 652 299.8 652 344 C508.78 344 365.56 344 218 344 C218 367.1 218 390.2 218 414 C361.22 414 504.44 414 652 414 C652 461.52 652 509.04 652 558 C576.21194272 558.02013078 576.21194272 558.02013078 552.770401 558.02565002 C551.93436857 558.02584736 551.09833614 558.02604469 550.23696939 558.02624801 C522.1077631 558.03286964 493.97855672 558.03812177 465.84934998 558.04234314 C464.47294835 558.04255023 464.47294835 558.04255023 463.06874063 558.04276149 C443.12929624 558.04575404 423.18985183 558.04852427 403.25040737 558.05106533 C393.47284645 558.05231272 383.69528553 558.05360927 373.91772461 558.05493164 C372.94471278 558.0550624 371.97170094 558.05519316 370.9692039 558.05532788 C339.40151478 558.05959319 307.83382745 558.06710744 276.26613941 558.07629722 C243.84033094 558.08571972 211.41452345 558.09188309 178.98871364 558.09391499 C174.41426365 558.09420317 169.83981367 558.0945288 165.26536369 558.09487724 C163.91481838 558.09497838 163.91481838 558.09497838 162.53698933 558.09508156 C148.01319189 558.09626567 133.48939749 558.10091016 118.96560129 558.10683203 C104.38272266 558.11270475 89.79984706 558.11497164 75.21696729 558.11350138 C66.54110291 558.11273779 57.86524959 558.11479524 49.1893872 558.12079754 C43.40502403 558.12452785 37.62066816 558.12467757 31.8363045 558.12183181 C28.53335213 558.12031184 25.23042524 558.1209704 21.92747421 558.12488318 C18.38161584 558.12884254 14.83581343 558.12676629 11.28995609 558.12304783 C10.24815422 558.12567484 9.20635236 558.12830186 8.13298073 558.13100848 C7.19757884 558.12876118 6.26217695 558.12651389 5.29842955 558.1241985 C4.48623844 558.12435448 3.67404733 558.12451046 2.83724437 558.12467116 C1 558 1 558 0 557 C-0.09908073 554.05171527 -0.13174162 551.1268283 -0.12304783 548.17807674 C-0.12420157 547.23615375 -0.12535532 546.29423075 -0.12654402 545.32376463 C-0.12921753 542.12711639 -0.12468352 538.93051721 -0.12025452 535.73387146 C-0.12069146 533.44107044 -0.1215675 531.14826946 -0.12284851 528.85546875 C-0.12510449 522.50967831 -0.12106044 516.16390455 -0.11607273 509.81811623 C-0.11167922 503.59954196 -0.11299138 497.38096744 -0.11368043 491.16239208 C-0.11492466 478.50987556 -0.11162022 465.85736422 -0.10557556 453.20484924 C-0.09741673 436.09689142 -0.09547352 418.98894247 -0.09460449 401.88098145 C-0.0893474 360.73315324 -0.07538639 319.58532652 -0.0625 278.4375 C-0.041875 186.553125 -0.02125 94.66875 0 0 Z " fill="#000000" transform="translate(4135,700)"/>
<path d="M0 0 C4.69461372 0.01709019 9.38871658 0.00689648 14.08331299 -0.01032639 C50.04731013 -0.12177981 86.22332164 1.43420352 121.75927734 7.32861328 C122.82919922 7.50336182 123.89912109 7.67811035 125.00146484 7.8581543 C132.65177374 9.11876905 140.28136665 10.45187916 147.88818359 11.95507812 C150.52964372 12.46786593 153.17564761 12.95378617 155.82177734 13.44189453 C170.56843841 16.21319584 184.81392623 19.93219566 199.13427734 24.39111328 C201.12516086 25.0004945 203.11604627 25.60986952 205.10693359 26.21923828 C214.66211881 29.17263012 224.00486367 32.28110557 233.13427734 36.39111328 C234.48382369 36.97090322 235.83414811 37.54888394 237.18505859 38.12548828 C264.96833735 50.08242285 290.41519439 65.22449299 312.51708984 85.96142578 C314.61489114 87.90893683 316.73737507 89.76199363 318.94677734 91.57861328 C322.77103505 94.82371658 325.91899391 98.55476906 329.13427734 102.39111328 C329.90900391 103.28958984 330.68373047 104.18806641 331.48193359 105.11376953 C344.8701923 120.8196248 356.09444791 138.35718638 364.13427734 157.39111328 C364.43543457 158.07915039 364.7365918 158.7671875 365.046875 159.47607422 C374.38899355 180.8918706 379.76204365 203.32044935 383.13427734 226.39111328 C383.24030273 227.07399414 383.34632812 227.756875 383.45556641 228.46044922 C384.23721877 233.91022757 384.13427734 238.72827902 384.13427734 244.39111328 C310.21427734 244.39111328 236.29427734 244.39111328 160.13427734 244.39111328 C158.81427734 241.09111328 157.49427734 237.79111328 156.13427734 234.39111328 C151.93332282 226.45938406 146.40510308 219.76840465 140.13427734 213.39111328 C139.44720703 212.69115234 138.76013672 211.99119141 138.05224609 211.27001953 C131.8397985 205.35724473 124.6888247 201.31114185 117.13427734 197.39111328 C116.08111328 196.84326172 115.02794922 196.29541016 113.94287109 195.73095703 C105.31584929 191.50922296 96.38923921 188.82796128 87.13427734 186.39111328 C86.23531738 186.148125 85.33635742 185.90513672 84.41015625 185.65478516 C62.77995242 179.98760751 40.40558503 178.61311481 18.13427734 178.39111328 C17.44195007 178.38358032 16.7496228 178.37604736 16.03631592 178.36828613 C10.81899536 178.31306712 5.60185866 178.2819584 0.38427734 178.26611328 C-0.31361908 178.26325317 -1.0115155 178.26039307 -1.7305603 178.25744629 C-45.06107056 178.13185246 -100.29713483 182.11681992 -132.86572266 214.39111328 C-153.29442041 236.72630394 -156.97634031 263.71928986 -157.11572266 292.95361328 C-157.12117096 293.64618225 -157.12661926 294.33875122 -157.13223267 295.05230713 C-157.29525112 322.93712884 -152.04131862 349.18650493 -132.86572266 370.39111328 C-125.46724784 377.59988362 -116.93966569 382.60294221 -107.86572266 387.39111328 C-107.25607666 387.71893799 -106.64643066 388.0467627 -106.01831055 388.38452148 C-100.74216464 391.14101416 -95.328419 393.10347541 -89.67822266 394.95361328 C-88.82164063 395.24429687 -87.96505859 395.53498047 -87.08251953 395.83447266 C-75.53720198 399.66008937 -63.83360325 401.86267999 -51.80322266 403.51611328 C-50.62695312 403.68498047 -49.45068359 403.85384766 -48.23876953 404.02783203 C-35.734635 405.78352588 -23.44483344 406.55223752 -10.81884766 406.55908203 C-9.39459197 406.56230823 -7.97033659 406.56567324 -6.54608154 406.56916809 C-3.57775099 406.57511033 -0.60944934 406.57701309 2.35888672 406.57641602 C6.11464516 406.57631467 9.87021342 406.58996099 13.62592697 406.60718822 C16.56378996 406.61844636 19.50160895 406.62033105 22.43949127 406.61980629 C23.82181706 406.62096597 25.20414479 406.62527046 26.58644867 406.63313866 C36.62204986 406.68492307 46.22091635 405.81941783 56.13427734 404.39111328 C57.41628525 404.2142952 58.69829315 404.03747711 60.01914978 403.8553009 C87.44805915 400.04346069 118.85731908 393.71746628 138.76708984 372.66455078 C140.13427734 371.39111328 140.13427734 371.39111328 142.13427734 371.39111328 C142.39080078 370.81748047 142.64732422 370.24384766 142.91162109 369.65283203 C144.25438524 367.16893286 145.83674069 365.32668543 147.69677734 363.20361328 C153.50940637 355.92008484 153.50940637 355.92008484 161.13427734 340.39111328 C234.72427734 340.39111328 308.31427734 340.39111328 384.13427734 340.39111328 C384.13427734 346.9036617 384.06021683 352.14641317 383.06787109 358.39892578 C382.89695198 359.47894363 382.89695198 359.47894363 382.72257996 360.58078003 C382.35057438 362.89464198 381.96348133 365.20550864 381.57177734 367.51611328 C381.43833923 368.31146484 381.30490112 369.10681641 381.16741943 369.92626953 C378.82475702 383.74586349 375.76756581 397.13798286 371.13427734 410.39111328 C370.69027588 411.66365967 370.69027588 411.66365967 370.23730469 412.96191406 C348.26527533 474.39100748 301.45496729 516.18732498 244.13427734 544.39111328 C240.18649283 546.24024485 236.22050434 547.87576056 232.13427734 549.39111328 C230.69935013 549.93530137 229.26445735 550.47958027 227.82958984 551.02392578 C223.7427054 552.56251261 219.64151837 554.05771918 215.53076172 555.53125 C214.01479147 556.07518309 212.50026472 556.62317113 210.98779297 557.17675781 C194.11937861 563.32419752 176.53614748 567.11554202 159.02807617 570.96630859 C156.34539085 571.56807119 153.67937732 572.23604875 151.00927734 572.89111328 C145.0186297 574.28542776 139.04131595 575.15058041 132.93505859 575.86376953 C130.10936255 576.25582397 127.41183385 576.73636684 124.62963867 577.32910156 C118.91876019 578.48196002 113.19207357 579.23358904 107.40771484 579.91064453 C105.76940201 580.103377 105.76940201 580.103377 104.09799194 580.30000305 C93.33530719 581.5326505 82.57219957 582.432727 71.75927734 583.07861328 C70.72177338 583.14148529 69.68426941 583.2043573 68.61532593 583.26913452 C2.13009217 587.1477444 -63.9353223 584.58180783 -129.77197266 574.78955078 C-130.57528015 574.67035782 -131.37858765 574.55116486 -132.20623779 574.42835999 C-160.28070655 570.19530576 -188.4865789 562.50639507 -214.90673828 552.15087891 C-216.71172699 551.45083842 -218.53043282 550.78644277 -220.35009766 550.12548828 C-228.47589378 547.15263604 -236.1111497 543.44906688 -243.77880859 539.46923828 C-245.85504837 538.39662775 -247.94134561 537.34598492 -250.02978516 536.29736328 C-277.14808259 522.51433095 -303.59033153 502.99249673 -322.65869141 479.14892578 C-324.01227536 477.45754477 -325.38567536 475.78151356 -326.79150391 474.13330078 C-337.5687427 461.32556772 -345.81443503 446.50838603 -352.86572266 431.39111328 C-353.24986328 430.57771484 -353.63400391 429.76431641 -354.02978516 428.92626953 C-355.02008662 426.76451389 -355.9475727 424.58447152 -356.86572266 422.39111328 C-357.31431641 421.36759766 -357.76291016 420.34408203 -358.22509766 419.28955078 C-365.09379228 403.03836091 -369.402069 385.84109683 -371.86572266 368.39111328 C-371.99575684 367.47040039 -372.12579102 366.5496875 -372.25976562 365.60107422 C-372.68389494 362.53275588 -373.09122344 359.46273233 -373.49072266 356.39111328 C-373.61406982 355.45477051 -373.73741699 354.51842773 -373.86450195 353.55371094 C-375.59489866 339.57402152 -376.02617119 325.5462864 -376.03369141 311.47314453 C-376.03692619 309.9998929 -376.04029166 308.52664156 -376.04377747 307.0533905 C-376.04970239 303.98537456 -376.05162463 300.91738648 -376.05102539 297.84936523 C-376.05094474 294.77541136 -376.05780189 291.70160845 -376.0715332 288.62768555 C-376.21749338 255.3866766 -376.21472766 221.32403532 -365.86572266 189.39111328 C-365.1765711 187.14161859 -364.48906616 184.89161877 -363.80322266 182.64111328 C-363.30048828 181.03623047 -363.30048828 181.03623047 -362.78759766 179.39892578 C-362.22679323 177.56918252 -361.68910134 175.73186396 -361.19384766 173.88330078 C-353.24405481 144.50784674 -333.65901095 117.07376967 -312.86572266 95.39111328 C-312.36169922 94.8598584 -311.85767578 94.32860352 -311.33837891 93.78125 C-303.43582105 85.487013 -295.11737266 78.14683222 -285.86572266 71.39111328 C-285.24858398 70.94026367 -284.63144531 70.48941406 -283.99560547 70.02490234 C-263.23069155 55.01322265 -240.86383139 43.51125746 -217.03808594 34.25341797 C-214.34345027 33.18380084 -211.7013226 32.00811631 -209.05322266 30.82861328 C-176.26799815 17.12595283 -138.88000943 10.6154236 -103.74560547 6.19335938 C-101.44814128 5.90158048 -99.15319392 5.59403294 -96.85791016 5.28564453 C-64.69927524 1.11118233 -32.39695108 -0.11876327 0 0 Z " fill="#000000" transform="translate(7263.86572265625,685.60888671875)"/>
<path d="M0 0 C3.86524932 4.65934758 7.29710705 9.59577713 10.75 14.5625 C11.44262939 15.55862305 12.13525879 16.55474609 12.84887695 17.58105469 C20.10466981 28.07048447 27.16181152 38.69060236 34.21972656 49.3137207 C42.42626071 61.66218412 50.7011803 73.96339756 59 86.25 C74.01306272 108.4809602 74.01306272 108.4809602 81 119 C88.8550506 130.82591412 96.8101128 142.58402781 104.75686646 154.34841919 C113.87068086 167.8428343 122.92445882 181.37561262 131.9375 194.9375 C138.78828737 205.24490226 145.67146396 215.51206807 152.83349609 225.60693359 C158.53572575 233.68035333 163.98339333 241.92089548 169.45141602 250.15368652 C177.66212685 262.51524935 185.9414494 274.82900529 194.25 287.125 C203.86813775 301.35928403 213.42876617 315.62992208 222.9375 329.9375 C229.74163446 340.17464204 236.57662547 350.37208486 243.69287109 360.39599609 C249.83852208 369.09971655 255.6985749 377.99435629 261.59436035 386.86810303 C270.13358559 399.7199495 278.73559761 412.52779474 287.375 425.3125 C296.95160976 439.48420038 306.47031225 453.69248886 315.9375 467.9375 C322.74163911 478.17463884 329.57662539 488.37208476 336.69287109 498.39599609 C342.30655705 506.34632606 347.67646326 514.45720597 353.0625 522.5625 C362.05588818 536.09540793 371.09599856 549.59528497 380.1875 563.0625 C380.79213074 563.95836823 381.39676147 564.85423645 382.01971436 565.7772522 C386.96135994 573.09896402 391.90540416 580.41905483 396.85009766 587.7387085 C401.13044485 594.0749872 405.40959573 600.41207171 409.6875 606.75 C410.28502075 607.63504211 410.8825415 608.52008423 411.49816895 609.4319458 C420.92480472 623.39772204 430.27662704 637.41202593 439.60379028 651.44436646 C445.85483269 660.84427179 452.15759632 670.19043776 458.69287109 679.39599609 C464.83852208 688.09971655 470.6985749 696.99435629 476.59436035 705.86810303 C485.13358559 718.7199495 493.73559761 731.52779474 502.375 744.3125 C511.95160976 758.48420038 521.47031225 772.69248886 530.9375 786.9375 C537.74163911 797.17463884 544.57662539 807.37208476 551.69287109 817.39599609 C557.30655705 825.34632606 562.67646326 833.45720597 568.0625 841.5625 C577.05588818 855.09540793 586.09599856 868.59528497 595.1875 882.0625 C595.79213074 882.95836823 596.39676147 883.85423645 597.01971436 884.7772522 C601.96135994 892.09896402 606.90540416 899.41905483 611.85009766 906.7387085 C616.13044483 913.07498718 620.40972894 919.41198181 624.6875 925.75 C625.28402374 926.63371277 625.88054749 927.51742554 626.49514771 928.42791748 C636.4764054 943.21831276 646.39453041 958.05008768 656.2644043 972.91503906 C657.26206482 974.41611015 658.25986422 975.91708895 659.2578125 977.41796875 C659.73279678 978.13316681 660.20778107 978.84836487 660.69715881 979.5852356 C663.15788568 983.27894781 665.64788836 986.94889 668.18261719 990.59228516 C668.69597626 991.33102371 669.20933533 992.06976227 669.73825073 992.83088684 C670.71902775 994.2378096 671.70396742 995.64184241 672.69363403 997.04252625 C676 1001.78121684 676 1001.78121684 676 1004 C638.36865113 1004.38936515 600.73760637 1004.68879044 563.10464968 1004.8681106 C558.65879311 1004.88937185 554.2129405 1004.91137541 549.76708984 1004.93383789 C548.88202498 1004.93829717 547.99696012 1004.94275645 547.08507511 1004.94735085 C532.7659747 1005.02126471 518.44803806 1005.1552665 504.12962738 1005.31159753 C489.43044079 1005.47074382 474.73186235 1005.56503388 460.03184962 1005.59950441 C450.9650162 1005.62279839 441.90147199 1005.69626877 432.83565167 1005.83457994 C426.6132679 1005.92465742 420.39257649 1005.95155702 414.16958854 1005.92952342 C410.5811273 1005.91866125 406.99839599 1005.93491977 403.41096306 1006.02649307 C382.50369885 1006.53421849 382.50369885 1006.53421849 376.69865322 1002.3354404 C372.8774566 998.39582804 370.31714262 993.99075501 368.00141287 989.04638565 C366.5675992 986.11638963 364.75370215 983.63533352 362.8203125 981.01171875 C361.58801407 979.23734546 360.35624107 977.46260715 359.125 975.6875 C354.05375896 968.38732256 348.97430283 961.09310731 343.875 953.8125 C343.01841797 952.58950195 343.01841797 952.58950195 342.14453125 951.34179688 C340.42995382 948.89434451 338.71504525 946.44712456 337 944 C328.96768491 932.53903383 320.95417939 921.06538576 312.96582031 909.57373047 C306.33232566 900.03387386 299.66869197 890.51527078 293 881 C283.65056519 867.65969216 274.32998123 854.29972144 265.03222656 840.92333984 C261.68938946 836.11469839 258.34463022 831.30739435 255 826.5 C250.97558673 820.71552151 246.95160986 814.93074203 242.9296875 809.14453125 C234.31053001 796.74607723 225.66628524 784.36555099 217 772 C208.96768491 760.53903383 200.95417939 749.06538576 192.96582031 737.57373047 C186.33232566 728.03387386 179.66869197 718.51527078 173 709 C164.96768491 697.53903383 156.95417939 686.06538576 148.96582031 674.57373047 C142.90199382 665.85313321 136.81341689 657.15003556 130.71777344 648.45166016 C127.22499519 643.46665744 123.7353709 638.47944619 120.24511719 633.49267578 C117.35451808 629.36290341 114.46323311 625.2336153 111.5703125 621.10546875 C105.36438912 612.24792356 99.17320994 603.38038112 93 594.5 C83.65009959 581.0509431 74.27449655 567.6204794 64.8125 554.25 C60.58440931 548.27371645 56.41473893 542.26037727 52.27783203 536.22070312 C46.84271831 528.29473679 41.31733811 520.43211993 35.79833984 512.56445312 C32.86275018 508.37826879 29.93153649 504.18902323 27 500 C23.52458046 495.03435462 20.04868566 490.06904574 16.5703125 485.10546875 C9.68271938 475.27499493 2.81705622 465.42957704 -4.03417969 455.57373047 C-10.66767434 446.03387386 -17.33130803 436.51527078 -24 427 C-32.03231509 415.53903383 -40.04582061 404.06538576 -48.03417969 392.57373047 C-54.66767434 383.03387386 -61.33130803 373.51527078 -68 364 C-76.03231509 352.53903383 -84.04582061 341.06538576 -92.03417969 329.57373047 C-98.66767434 320.03387386 -105.33130803 310.51527078 -112 301 C-120.07182723 289.48265566 -128.12731444 277.9544122 -136.14624023 266.40014648 C-139.29043566 261.87455672 -142.44665767 257.35895405 -145.64453125 252.87109375 C-146.48250244 251.69389771 -146.48250244 251.69389771 -147.33740234 250.49291992 C-148.37473083 249.03885572 -149.41523089 247.58704685 -150.45947266 246.13793945 C-152.38285642 243.44200448 -153.94611613 241.16165162 -155 238 C-154.11401367 236.06835938 -154.11401367 236.06835938 -152.66796875 233.84375 C-151.85440918 232.57748779 -151.85440918 232.57748779 -151.02441406 231.28564453 C-150.41823242 230.36638184 -149.81205078 229.44711914 -149.1875 228.5 C-148.56456055 227.53819824 -147.94162109 226.57639648 -147.29980469 225.58544922 C-141.42236073 216.54732979 -135.41541995 207.59304939 -129.4128418 198.63769531 C-124.9356557 191.95143994 -120.56024014 185.2189433 -116.34057617 178.36743164 C-113.27478928 173.39874255 -110.0630625 168.54018999 -106.80737305 163.69433594 C-103.76294267 159.15864768 -100.77318091 154.5907613 -97.8125 150 C-93.47714456 143.27930669 -89.12073768 136.57274297 -84.75 129.875 C-84.11763428 128.9058667 -83.48526855 127.9367334 -82.83374023 126.93823242 C-81.53866636 124.95371591 -80.24349965 122.96925998 -78.94824219 120.98486328 C-75.75633918 116.09461188 -72.56545024 111.2036993 -69.375 106.3125 C-68.75141602 105.35649902 -68.12783203 104.40049805 -67.48535156 103.41552734 C-63.48465392 97.28063632 -59.49004306 91.14182503 -55.5 85 C-47.71100744 73.01049794 -39.89675877 61.0374891 -32.08398438 49.06347656 C-30.18085323 46.1465733 -28.27788245 43.22956551 -26.375 40.3125 C-25.44917114 38.89336304 -25.44917114 38.89336304 -24.50463867 37.44555664 C-21.45852922 32.77501608 -18.41557531 28.10246609 -15.37890625 23.42578125 C-14.79898926 22.53270264 -14.21907227 21.63962402 -13.62158203 20.71948242 C-12.54260811 19.05722439 -11.46411323 17.39465525 -10.38623047 15.73168945 C-6.96497208 10.46020462 -3.49718562 5.22141184 0 0 Z " fill="#121C27" transform="translate(1183,633)"/>
<path d="M0 0 C71.94 0 143.88 0 218 0 C218 184.14 218 368.28 218 558 C146.06 558 74.12 558 0 558 C0 373.86 0 189.72 0 0 Z " fill="#000000" transform="translate(3046,699)"/>
<path d="M0 0 C103.13131329 -0.02399583 206.26262733 -0.04300625 1102.65791488 0.42968112 C1105.64576376 0.43739229 1108.63361279 0.4450458 1111.62146187 0.45268011 C1146.97726133 0.54309464 1182.33303441 0.64136757 1217.68876648 0.75526428 C1218.64490508 0.75834099 1219.60104368 0.76141769 1220.58615618 0.76458763 C1223.52938577 0.77405922 1226.47261535 0.7835366 1229.41584492 0.79301548 C1232.43282417 0.80273072 1235.44980343 0.81244544 1238.4667827 0.82215686 C1240.51745994 0.82876091 1242.56813715 0.83537218 1244.61881433 0.84199052 C1273.0547825 0.93368691 1301.4907647 1.01635564 1329.92678833 1.08862305 C1330.66886987 1.09050927 1331.41095141 1.09239549 1332.17552027 1.09433887 C1339.10881749 1.11195258 1346.04211486 1.12950794 1352.97541228 1.14704253 C1445.70801473 1.38169372 1538.44058555 1.63660273 2101.87222271 4.0067216 C2104.66122916 4.01982748 2107.45023562 4.03293258 2110.23924208 4.04603672 C2110.93096057 4.04928676 2111.62267907 4.05253681 2112.33535873 4.05588534 C2122.89819343 4.10550814 2133.46102901 4.15493902 2144.02386522 4.20423794 C2144.7262449 4.20751618 2145.42862458 4.21079441 2146.1522885 4.21417199 C2148.99573175 4.22744306 2151.839175 4.2407138 2154.68261825 4.25398438 C2226.95120363 4.5912915 2299.21976181 4.93413225 3221.39558278 10.54037959 C3230.52249324 10.6058948 3239.64940448 10.67130111 3248.77631617 10.7366457 C3367.47010465 11.58651735 3486.16374793 12.45524866 4345.79597754 19.78332831 C4371.74791451 20.03322101 4397.69987669 20.28036857 4423.65185547 20.52587891 C4454.72704385 20.81986244 4485.80221574 21.1155075 4516.8773638 21.41372478 C4520.18218522 21.44543543 4523.48700668 21.47714186 4526.79182816 21.50884628 C4527.60390753 21.51663826 4528.4159869 21.52443024 4529.25267474 21.53245834 C4541.25631422 21.64760561 4553.25996479 21.76153768 4565.26362228 21.87479019 C4578.7345459 22.00189061 4592.20545072 22.13081679 4605.67633466 22.26205696 C4612.47802648 22.32827832 4619.27972293 22.39372574 4626.08144379 22.45691681 C4655.39771068 22.72986043 4684.7075336 23.11349181 4714.01889287 23.72278111 C4728.03707878 24.01355116 4742.05281174 24.18187684 4756.07393074 24.26036072 C4760.02591307 24.28260514 4763.97784743 24.30933517 4767.92979431 24.33703613 C4777.71280994 24.40484723 4787.49586736 24.46559279 4797.27893066 24.52606201 C4806.98936854 24.58622138 4816.69977796 24.64960289 4826.41015625 24.71875 C4827.08517803 24.7235116 4827.76019981 24.7282732 4828.45567679 24.73317909 C4846.05226806 24.85839274 4863.63814707 25.09901131 4881.22888184 25.56698608 C4905.62677308 26.20905135 4930.03152576 26.29810984 4954.43637955 26.45886326 C4966.9820677 26.54201871 4979.52766266 26.63886374 4992.07326341 26.73415184 C4994.16104654 26.74997714 4996.24883047 26.7656944 4998.33661461 26.78138733 C5022.21103421 26.96115419 5046.08471798 27.18172745 5069.95808029 27.47036743 C5072.37578175 27.49926238 5074.79349342 27.52703583 5077.21121216 27.55444336 C5091.94348546 27.7226184 5106.67004712 27.94667464 5121.3974762 28.36645508 C5139.20212646 28.87392245 5157.00107758 29.14152809 5174.8125 29.28125 C5176.03407869 29.29084244 5177.25565739 29.30043488 5178.51425362 29.31031799 C5187.34280338 29.37829535 5196.17139426 29.43980048 5205 29.5 C5215.06253472 29.5686133 5225.12504024 29.6398336 5235.1875 29.71875 C5236.4134532 29.72832293 5237.63940639 29.73789585 5238.90250969 29.74775887 C5254.14143762 29.87120539 5269.36778624 30.11224184 5284.60032845 30.56271172 C5309.2100198 31.28048397 5333.8329351 31.34804025 5358.45111084 31.53222656 C5364.52292652 31.57833715 5370.59471486 31.62770917 5376.66650474 31.67708123 C5390.44430411 31.78902848 5404.22213678 31.89622915 5418 32 C5418 32.66 5418 33.32 5418 34 C5316.97190958 34.02400951 5215.94381839 34.04301332 4327.1875 33.5625 C4326.10599712 33.55970205 4325.02449423 33.5569041 4323.91021854 33.55402136 C4274.20733455 33.42526802 4224.50451243 33.27882804 4174.80171955 33.11890697 C4148.37580647 33.03390903 4121.94988381 32.95636018 4095.52392578 32.88671875 C4094.2667054 32.88340119 4094.2667054 32.88340119 4092.98408663 32.88001661 C4085.44209187 32.86011698 4077.90009693 32.84028343 4070.35810184 32.82050318 C3989.00051235 32.60696487 3907.64309467 32.34975502 3555.33959961 30.8581543 C3552.88005197 30.84670244 3550.42050433 30.83525092 3547.96095669 30.82379973 C3526.55760762 30.72413131 3505.154259 30.62436398 3483.75091315 30.52400511 C3424.96405566 30.24838658 3366.17719859 29.98286218 3307.39014679 29.75203042 C3304.7059577 29.74149051 3302.02176865 29.73094219 3299.33757959 29.7203943 C3297.31572516 29.71244923 3295.29387072 29.70450511 3293.27201629 29.6965611 C3286.47423149 29.66985068 3279.67644675 29.64312872 3272.87866211 29.61637878 C3272.2007567 29.61371168 3271.52285129 29.61104457 3270.82440329 29.60829665 C3212.48703997 29.37872153 3154.14974767 29.13222735 3095.8125 28.875 C3094.65749346 28.86991098 3094.65749346 28.86991098 3093.47915345 28.86471914 C3006.37344592 28.48087564 2919.26794753 28.05283432 2168.55474391 23.10769753 C2167.7616539 23.10207014 2166.96856389 23.09644275 2166.15144085 23.09064483 C2164.55005719 23.07928216 2162.94867354 23.06791939 2161.34728988 23.05655653 C2149.38109155 22.97165125 2137.41489247 22.8868519 2125.4486928 22.80213451 C2124.66190591 22.79656424 2123.87511902 22.79099396 2123.06449011 22.78525489 C2119.88930644 22.76277545 2116.71412278 22.74029623 2113.53893911 22.7178172 C2037.5050958 22.17951541 1961.47128115 21.63733621 1878.86317266 21.0418611 C1863.92335393 20.93414497 1848.98353399 20.82660333 1834.04370975 20.71965337 C1833.3590039 20.71475164 1832.67429805 20.7098499 1831.96884353 20.70479964 C1829.21625763 20.68509465 1826.46367173 20.66539042 1823.71108583 20.64568648 C1707.64418587 19.81478906 1591.57801862 18.93332399 1394.60084721 17.15269635 C1382.41995819 17.04052664 1370.23906325 16.9290329 1358.05816078 16.81833267 C1357.28800409 16.81133174 1356.51784741 16.80433081 1355.72435264 16.79711774 C1349.33437908 16.73903414 1342.9444051 16.68099703 1336.55443086 16.62298776 C1316.97333029 16.44516017 1297.3922782 16.2625744 1277.81126176 16.07571527 C1268.70947558 15.98886409 1259.60767656 15.90360985 1250.50585938 15.82006836 C1237.9257539 15.70448982 1225.34567276 15.58655137 1212.765625 15.46484375 C1211.2927934 15.45060049 1211.2927934 15.45060049 1209.79020762 15.43606949 C1186.00385579 15.20482036 1162.22295502 14.90036647 1138.44053078 14.39931679 C1115.06781739 13.91109986 1091.69518217 13.79876381 1068.31817245 13.68964863 C1049.98934399 13.60384339 1031.6606744 13.4936675 1013.33203125 13.375 C1011.89673868 13.36571559 1011.89673868 13.36571559 1010.43245029 13.35624361 C944.6621257 12.92826815 878.89350361 12.26797003 813.125 11.625 C811.88895058 11.61292271 811.88895058 11.61292271 810.62793046 11.60060143 C730.1276891 10.81399421 649.62784043 9.99037561 519.68265129 8.49572638 C513.52091366 8.42346633 507.35917295 8.35148486 501.19742584 8.28003693 C485.76393948 8.10104703 470.33048785 7.91946322 454.8970871 7.73322296 C450.30038309 7.67780503 445.70366916 7.62339552 441.10694122 7.56999969 C416.91878882 7.28816176 392.73802428 6.90907502 368.55608523 6.28459889 C354.47223461 5.92167851 340.38713234 5.71727798 326.29968262 5.55471802 C323.07058352 5.51710782 319.84150108 5.4783719 316.61242676 5.43869019 C294.91127464 5.17283965 273.20988707 4.95946327 251.5078125 4.78515625 C249.84705468 4.77180048 249.84705468 4.77180048 248.1527462 4.7581749 C243.56118813 4.72130445 238.96962911 4.68455408 234.37806988 4.64782906 C184.2701814 4.2466387 134.16467571 3.72274901 84.05908549 3.09877151 C77.84658249 3.02159133 71.63405335 2.94682884 65.42150879 2.87307739 C57.82640732 2.78281832 50.23135873 2.68905263 42.63635653 2.59078187 C38.72035054 2.54016391 34.80434072 2.49098835 30.88826942 2.4456768 C27.27394587 2.4037677 23.65970618 2.35745436 20.04548311 2.30764472 C18.10791992 2.28205307 16.17029761 2.26106578 14.23267746 2.2402277 C13.08110279 2.22347209 11.92952812 2.20671648 10.74305725 2.18945312 C9.74793153 2.17692505 8.75280581 2.16439697 7.72752476 2.15148926 C5.06187791 2.00343676 2.59972218 1.59273392 0 1 C0 0.67 0 0.34 0 0 Z " fill="#1B2530" transform="translate(2223,1324)"/>
<path d="M0 0 C34.37886754 -0.13244585 68.75748608 -0.24316376 103.13653225 -0.30639198 C107.20169903 -0.31389559 111.26686527 -0.32166159 115.33203125 -0.32958984 C116.54590663 -0.33195064 116.54590663 -0.33195064 117.78430474 -0.33435912 C130.86182981 -0.36041751 143.9391955 -0.40769743 157.01662624 -0.46291678 C170.45028097 -0.51916425 183.88385263 -0.55238182 197.31762028 -0.56453097 C205.59704214 -0.57273518 213.8760134 -0.59858064 222.15529644 -0.6474988 C227.84430063 -0.67938579 233.53307426 -0.68876224 239.22216117 -0.68100826 C242.497323 -0.67719139 245.77154398 -0.68610376 249.04660034 -0.71523285 C266.0279755 -0.85878505 282.99542709 -0.62208547 296 12 C296.67289063 12.64582031 297.34578125 13.29164063 298.0390625 13.95703125 C307.00695059 23.2775891 311.85323135 34.45297768 312.3125 47.3125 C311.98520574 61.09736432 306.51130635 71.87956389 297.28125 81.890625 C286.59469886 91.77202503 275.98887787 94.15949532 261.91433716 94.12025452 C260.79440081 94.12110894 259.67446447 94.12196337 258.52059066 94.12284368 C254.76647778 94.12449129 251.01240955 94.11898882 247.25830078 94.11352539 C244.56779378 94.11324334 241.87728951 94.11335757 239.18678284 94.1139679 C233.39356143 94.11449185 227.60035129 94.11135849 221.80713272 94.10573006 C213.43114653 94.09759763 205.05516579 94.09499805 196.67917608 94.09374207 C183.08917419 94.09155429 169.49917831 94.08490163 155.90917969 94.07543945 C142.70898468 94.06625825 129.50879131 94.05918088 116.30859375 94.05493164 C115.4947203 94.05466892 114.68084685 94.05440619 113.84231056 94.05413551 C109.75928293 94.05283046 105.67625528 94.05156675 101.59322762 94.05032361 C67.72881309 94.03995953 33.86440973 94.02152581 0 94 C0 62.98 0 31.96 0 0 Z " fill="#FEFEFE" transform="translate(6308,863)"/>
<path d="M0 0 C33.95437922 -0.04411731 67.90873055 -0.0810355 101.86312981 -0.10213066 C105.87465495 -0.10463198 109.88618003 -0.10722063 113.89770508 -0.10986328 C115.09560409 -0.11065021 115.09560409 -0.11065021 116.31770309 -0.11145304 C129.23686774 -0.1201481 142.15601452 -0.13591311 155.07516859 -0.15430559 C168.33817613 -0.17302968 181.60117435 -0.18412203 194.86419457 -0.18817699 C203.04365073 -0.19091685 211.2230564 -0.19956057 219.40249702 -0.21583293 C225.01666655 -0.22643079 230.6308101 -0.2295943 236.2449889 -0.22700275 C239.48074167 -0.22572581 242.71638828 -0.22874393 245.95212936 -0.23841095 C249.46911707 -0.24840109 252.98589098 -0.24595392 256.50288391 -0.24050903 C257.5136168 -0.24633472 258.52434969 -0.2521604 259.56571084 -0.25816262 C274.39450094 -0.19635971 287.38541232 3.3119577 298.4375 13.625 C307.75236466 23.76853466 312.03516594 34.71982351 311.98828125 48.42578125 C311.30210566 61.64609759 305.73870771 73.82272555 296 83 C284.99052094 91.78202227 275.82562296 94.15904016 261.91433716 94.12025452 C260.79440081 94.12110894 259.67446447 94.12196337 258.52059066 94.12284368 C254.76647778 94.12449129 251.01240955 94.11898882 247.25830078 94.11352539 C244.56779378 94.11324334 241.87728951 94.11335757 239.18678284 94.1139679 C233.39356143 94.11449185 227.60035129 94.11135849 221.80713272 94.10573006 C213.43114653 94.09759763 205.05516579 94.09499805 196.67917608 94.09374207 C183.08917419 94.09155429 169.49917831 94.08490163 155.90917969 94.07543945 C142.70898468 94.06625825 129.50879131 94.05918088 116.30859375 94.05493164 C115.4947203 94.05466892 114.68084685 94.05440619 113.84231056 94.05413551 C109.75928293 94.05283046 105.67625528 94.05156675 101.59322762 94.05032361 C67.72881309 94.03995953 33.86440973 94.02152581 0 94 C0 62.98 0 31.96 0 0 Z " fill="#FEFEFE" transform="translate(2450,863)"/>
<path d="M0 0 C6.27 0 12.54 0 19 0 C19.33 0.99 19.66 1.98 20 3 C20.99 3.33 21.98 3.66 23 4 C24.83858892 6.13135786 26.55552097 8.25922301 28.25 10.5 C28.73509033 11.13131836 29.22018066 11.76263672 29.7199707 12.41308594 C30.69476932 13.68176362 31.66721527 14.95225274 32.63720703 16.22460938 C34.99537777 19.29673721 37.43134891 22.30791012 39.85546875 25.328125 C41 27 41 27 41 29 C41.66 29 42.32 29 43 29 C43.66 30.65 44.32 32.3 45 34 C45.66 34 46.32 34 47 34 C47.66 35.65 48.32 37.3 49 39 C49.66 39 50.32 39 51 39 C52.78811 41.08913862 54.46621903 43.18649831 56.125 45.375 C57.11272238 46.65928418 58.10100813 47.94313526 59.08984375 49.2265625 C59.57952637 49.8649707 60.06920898 50.50337891 60.57373047 51.16113281 C63.19017917 54.53447955 65.91786261 57.81841486 68.63671875 61.109375 C70 63 70 63 70 65 C70.66 65 71.32 65 72 65 C73.66303921 66.94329212 75.21248835 68.8976763 76.75 70.9375 C81.06291438 76.54892623 85.47833275 82.05539162 90 87.5 C94.92052175 93.43345149 99.75122312 99.42360442 104.44921875 105.53515625 C106.82783277 108.607222 109.22986647 111.22986647 112 114 C112 76.38 112 38.76 112 0 C119.26 0 126.52 0 134 0 C134 51.48 134 102.96 134 156 C115 156 115 156 110.4765625 152.7109375 C108.953125 150.60546875 108.953125 150.60546875 107.625 148.375 C107.13257812 147.66214844 106.64015625 146.94929688 106.1328125 146.21484375 C105.17217415 144.82242912 104.2350263 143.41343656 103.32519531 141.98730469 C102.04230524 140.06344227 100.66236232 138.34676666 99.1484375 136.6015625 C97 134 97 134 97 132 C96.34 132 95.68 132 95 132 C94.01 129.525 94.01 129.525 93 127 C92.34 127 91.68 127 91 127 C90.34 125.35 89.68 123.7 89 122 C88.34 122 87.68 122 87 122 C86.34 120.35 85.68 118.7 85 117 C84.34 117 83.68 117 83 117 C81.70409429 115.40618494 80.48847306 113.74675218 79.3125 112.0625 C76.67738275 108.35133669 74.03083707 104.66617655 71.25 101.0625 C70.45335938 100.02802734 70.45335938 100.02802734 69.640625 98.97265625 C67.98100883 96.90457167 67.98100883 96.90457167 65.796875 94.87109375 C64 93 64 93 64 91 C63.34 91 62.68 91 62 91 C61.34 89.35 60.68 87.7 60 86 C59.34 86 58.68 86 58 86 C57.34 84.35 56.68 82.7 56 81 C55.34 81 54.68 81 54 81 C52.78995325 79.48668339 51.65876169 77.91017036 50.5625 76.3125 C46.82731103 71.01582319 42.78895562 66.10384658 38.50610352 61.24145508 C35 57.20729779 35 57.20729779 35 55 C34.34 55 33.68 55 33 55 C32.34 53.35 31.68 51.7 31 50 C30.34 50 29.68 50 29 50 C28.34 48.35 27.68 46.7 27 45 C26.34 45 25.68 45 25 45 C24.67 44.34 24.34 43.68 24 43 C23.67 80.29 23.34 117.58 23 156 C15.41 156 7.82 156 0 156 C0 104.52 0 53.04 0 0 Z " fill="#030303" transform="translate(4504,1445)"/>
<path d="M0 0 C23.35746275 -0.8405825 44.44132124 6.59357823 61.91015625 22.1796875 C75.56143422 35.00553936 84.3494004 53.06861701 85.41796875 71.80078125 C86.12581828 95.99837141 81.22588734 116.43148972 65.01953125 134.95703125 C49.53397734 151.27421676 28.55337236 159.52047986 6.375 160.3046875 C-19.08725089 160.72598638 -40.98954982 153.22504797 -59.59375 135.83984375 C-69.24726038 125.74982682 -75.91710343 113.76462533 -79.08984375 100.1796875 C-79.42435547 98.88224609 -79.42435547 98.88224609 -79.765625 97.55859375 C-84.34706457 77.08236384 -80.59709125 55.20718977 -69.77734375 37.3671875 C-63.55285458 28.1669557 -56.0776556 20.6740155 -47.08984375 14.1796875 C-46.39117187 13.65761719 -45.6925 13.13554688 -44.97265625 12.59765625 C-31.65460922 3.61626866 -15.65213348 0.72235115 0 0 Z M-25.08984375 26.1796875 C-26.00378906 26.64890625 -26.91773437 27.118125 -27.859375 27.6015625 C-41.72087247 35.33241266 -52.03026152 47.53476868 -56.90625 62.72265625 C-60.77762176 80.18443798 -58.51311586 98.24101844 -49 113.4296875 C-39.96101786 126.44286424 -27.3012435 135.50965332 -11.66186523 138.78051758 C7.97582455 141.82822738 24.78299197 138.90138251 40.91015625 127.1796875 C41.74417969 126.57382813 42.57820313 125.96796875 43.4375 125.34375 C53.31249781 116.70117688 60.9670673 101.72835059 62.1315918 88.70288086 C62.96415539 69.61782506 60.13260773 53.6555788 47.31811523 38.64355469 C44.85880896 36.08659258 42.06529669 34.07468964 39.16015625 32.0546875 C38.23481079 31.4040332 38.23481079 31.4040332 37.29077148 30.74023438 C32.73477516 27.60251881 28.18322732 24.93419939 22.91015625 23.1796875 C21.94078125 22.82777344 20.97140625 22.47585938 19.97265625 22.11328125 C6.12059319 18.25882621 -12.39719174 19.45275896 -25.08984375 26.1796875 Z " fill="#030303" transform="translate(5303.08984375,1442.8203125)"/>
<path d="M0 0 C0.98097656 0.26683594 1.96195313 0.53367187 2.97265625 0.80859375 C21.42534512 6.27875844 36.38261921 18.10788632 47 34 C47.64388672 34.95519531 47.64388672 34.95519531 48.30078125 35.9296875 C51.38730793 40.91103172 53.19363207 46.46195841 55 52 C55.30292969 52.84691406 55.60585938 53.69382812 55.91796875 54.56640625 C62.01049651 74.21695354 58.52155218 97.95118698 49.14550781 115.96191406 C38.01136395 135.77176763 20.79381597 148.47703989 -0.875 154.9375 C-6.24085944 156.18500234 -11.5002983 156.77300759 -17 157 C-18.04607422 157.05679932 -18.04607422 157.05679932 -19.11328125 157.11474609 C-41.01995011 158.2054773 -62.92616956 153.19526023 -80.0546875 138.76953125 C-80.69664063 138.18558594 -81.33859375 137.60164063 -82 137 C-82.68320312 136.38511719 -83.36640625 135.77023437 -84.0703125 135.13671875 C-98.38392728 121.55783324 -107.50305304 102.69751899 -108.23828125 83.00390625 C-108.71816794 59.6137148 -103.51330909 39.34704294 -87 22 C-75.03197474 9.60586858 -62.29838946 3.49411212 -46 -1 C-45.01 -1.33 -44.02 -1.66 -43 -2 C-28.66857219 -3.98435154 -13.90719141 -4.17758286 0 0 Z M-72 38 C-72 38.66 -72 39.32 -72 40 C-72.66 40 -73.32 40 -74 40 C-85.00313594 54.79732075 -87.14339922 72.30637586 -84.70263672 90.17724609 C-81.97025428 104.93505325 -72.09434655 117.92444092 -60.25 126.8125 C-45.29262949 136.69838707 -26.0981839 138.4516545 -8.64550781 135.61767578 C5.62009015 132.15337118 17.79097779 122.65279434 25.75 110.5625 C28.59921144 105.87655317 31.05066294 101.12740316 33 96 C33.53947266 94.76830078 33.53947266 94.76830078 34.08984375 93.51171875 C35.45876389 88.2299196 35.28798941 83.0574861 35.25 77.625 C35.25773437 76.52671875 35.26546875 75.4284375 35.2734375 74.296875 C35.25876268 68.17747457 34.79541461 62.85647148 33 57 C32.34 57 31.68 57 31 57 C30.835 55.741875 30.67 54.48375 30.5 53.1875 C28.0120266 42.24041706 18.62393142 33.58050992 10 27 C-16.18868005 10.5583651 -51.23635589 15.23905144 -72 38 Z " fill="#030303" transform="translate(4858,1446)"/>
<path d="M0 0 C7.59 0 15.18 0 23 0 C23 22.11 23 44.22 23 67 C52.37 67 81.74 67 112 67 C112 44.89 112 22.78 112 0 C119.59 0 127.18 0 135 0 C135 51.48 135 102.96 135 156 C127.41 156 119.82 156 112 156 C112 133.23 112 110.46 112 87 C82.63 87 53.26 87 23 87 C23 109.77 23 132.54 23 156 C15.41 156 7.82 156 0 156 C0 104.52 0 53.04 0 0 Z " fill="#040404" transform="translate(4245,1445)"/>
<path d="M0 0 C36.3 0 72.6 0 110 0 C110 6.6 110 13.2 110 20 C81.29 20 52.58 20 23 20 C23 35.51 23 51.02 23 67 C48.74 67 74.48 67 101 67 C101 73.6 101 80.2 101 87 C75.26 87 49.52 87 23 87 C23 103.17 23 119.34 23 136 C52.7 136 82.4 136 113 136 C113 142.6 113 149.2 113 156 C75.71 156 38.42 156 0 156 C0 104.52 0 53.04 0 0 Z " fill="#050505" transform="translate(3780,1445)"/>
<path d="M0 0 C36.63 0 73.26 0 111 0 C111 6.6 111 13.2 111 20 C81.96 20 52.92 20 23 20 C23 35.51 23 51.02 23 67 C48.74 67 74.48 67 101 67 C101 73.27 101 79.54 101 86 C75.26 86 49.52 86 23 86 C23 102.83 23 119.66 23 137 C53.03 137 83.06 137 114 137 C114 143.27 114 149.54 114 156 C76.38 156 38.76 156 0 156 C0 104.52 0 53.04 0 0 Z " fill="#020202" transform="translate(5896,1445)"/>
<path d="M0 0 C22.30754228 -1.11028829 42.6138945 4.27547462 59.69042969 19.1328125 C60.70105469 19.9371875 61.71167969 20.7415625 62.75292969 21.5703125 C63.39230469 22.0859375 64.03167969 22.6015625 64.69042969 23.1328125 C63.06981936 27.12714031 60.29703796 29.92839571 57.31542969 32.9453125 C56.59226563 33.7177832 56.59226563 33.7177832 55.85449219 34.50585938 C54.41699219 35.96484375 54.41699219 35.96484375 51.69042969 38.1328125 C48.23228584 38.11415345 47.4595667 36.92202456 44.81542969 34.5078125 C30.53888997 21.74218087 12.98727289 21.18698913 -5.13085938 21.89453125 C-18.58717254 22.90323798 -32.36279265 30.03494476 -41.50097656 39.9140625 C-53.63345253 54.79796391 -56.71855625 71.39752268 -55.30957031 90.1328125 C-53.19040532 104.74299065 -45.3426803 118.07956224 -33.74316406 127.13671875 C-21.5532608 135.35203929 -9.52210233 138.31100585 4.94042969 138.3203125 C5.9265625 138.33255859 6.91269531 138.34480469 7.92871094 138.35742188 C16.88514283 138.37512233 24.89400557 137.23347927 33.12792969 133.5703125 C35.97879063 132.3177178 38.73540609 131.11782037 41.69042969 130.1328125 C41.69042969 113.3028125 41.69042969 96.4728125 41.69042969 79.1328125 C48.95042969 79.1328125 56.21042969 79.1328125 63.69042969 79.1328125 C63.89424323 86.96517527 64.05913956 94.7960748 64.15673923 102.63036442 C64.20359862 106.26882441 64.26707835 109.90536784 64.36938477 113.54272461 C64.46760945 117.05719559 64.52107191 120.56983124 64.54432487 124.08556938 C64.56890629 126.07077051 64.63910319 128.05523837 64.71009827 130.0393219 C64.71502781 138.8917299 64.71502781 138.8917299 61.74942017 142.4839325 C59.47094176 144.28677632 57.23893913 145.74489827 54.69042969 147.1328125 C54.08669022 147.49856384 53.48295074 147.86431519 52.86091614 148.2411499 C38.00318193 156.91305917 21.43396584 160.5360361 4.37792969 160.4453125 C3.2799707 160.44039795 2.18201172 160.4354834 1.05078125 160.43041992 C-21.09401938 160.11111823 -42.46613084 151.87977636 -58.30957031 136.1328125 C-73.08952698 120.36544663 -80.08082187 99.86728789 -79.77587891 78.38427734 C-78.88048501 55.88922774 -71.58238022 37.74985245 -55.30957031 22.1328125 C-54.63152344 21.45863281 -53.95347656 20.78445313 -53.25488281 20.08984375 C-38.48031586 6.20420302 -19.63109601 1.12889178 0 0 Z " fill="#040404" transform="translate(5566.3095703125,1442.8671875)"/>
<path d="M0 0 C1.08152344 0.17144531 2.16304687 0.34289063 3.27734375 0.51953125 C12.69761003 2.32440303 20.63831331 6.48103967 29 11 C27.74646681 18.06536889 25.43796251 23.71456473 22 30 C17.13629212 28.12796511 12.51132126 25.8384951 7.83984375 23.53515625 C-1.6261547 19.46051885 -11.22389746 18.44418796 -21.4375 18.5 C-23.21483521 18.50640503 -23.21483521 18.50640503 -25.02807617 18.51293945 C-33.58842804 18.67991027 -40.54977432 19.47486293 -48 24 C-48.64453125 24.38414063 -49.2890625 24.76828125 -49.953125 25.1640625 C-54.07688259 28.10674389 -56.7449029 32.15005688 -58 37 C-58.34154736 42.5877148 -58.47821618 48.82198102 -55 53.5 C-44.85960751 61.95032708 -32.06942085 65.24326393 -19.375 67.875 C-12.41742839 69.32657969 -5.68902671 71.21567523 1.0625 73.4375 C1.91859863 73.71384277 2.77469727 73.99018555 3.65673828 74.27490234 C15.75647293 78.36478729 26.45725526 84.48658709 32.5 96.125 C37.12153442 105.80454708 37.2915715 116.84663396 34 127 C29.11715876 140.28388688 19.30553185 147.60067977 6.9296875 153.40625 C-13.91068973 162.39815864 -42.81735564 159.47337709 -63.7421875 151.78515625 C-71.52365103 148.68694848 -78.3685253 144.07574959 -85 139 C-83.443154 134.98696492 -81.68861143 131.0907072 -79.875 127.1875 C-79.33617188 126.02605469 -78.79734375 124.86460938 -78.2421875 123.66796875 C-77.62730469 122.34732422 -77.62730469 122.34732422 -77 121 C-73.91467423 122.16228026 -71.22118215 123.39464854 -68.5 125.25 C-54.62683445 134.06415405 -40.87533543 137.5343609 -24.5625 137.5 C-23.34240234 137.52835938 -22.12230469 137.55671875 -20.86523438 137.5859375 C-11.0130623 137.60688842 -1.39236466 135.66099059 6.625 129.5625 C11.5956877 124.19938959 12.51928668 119.76511422 12.27734375 112.61328125 C11.73627915 107.51508097 9.66076972 104.41290197 6.0625 100.9375 C-5.33272457 91.87794257 -22.04469798 89.52664468 -35.9375 86.4375 C-51.12021911 82.9737618 -67.15143985 77.29426949 -76.44140625 63.92578125 C-77.4780565 61.97871492 -78.27654902 60.08202463 -79 58 C-79.4125 56.845 -79.825 55.69 -80.25 54.5 C-82.22600166 45.52788435 -82.54603755 34.16220378 -78 26 C-77.5978125 25.20335937 -77.195625 24.40671875 -76.78125 23.5859375 C-71.23904121 13.39443134 -62.68792285 6.41877947 -52 2 C-34.82707961 -2.96192734 -17.52328218 -2.91744995 0 0 Z " fill="#030303" transform="translate(6194,1445)"/>
<path d="M0 0 C5.06783841 4.38549271 5.06783841 4.38549271 7.16015625 6.72265625 C7.16015625 9.72265625 7.16015625 9.72265625 5.96679688 11.2565918 C5.42216797 11.78551025 4.87753906 12.31442871 4.31640625 12.859375 C3.43662109 13.7246582 3.43662109 13.7246582 2.5390625 14.60742188 C1.91902344 15.20232422 1.29898438 15.79722656 0.66015625 16.41015625 C0.04011719 17.01666016 -0.57992187 17.62316406 -1.21875 18.24804688 C-2.75249082 19.74639368 -4.29532573 21.23542118 -5.83984375 22.72265625 C-6.35095703 22.32369141 -6.86207031 21.92472656 -7.38867188 21.51367188 C-25.66499657 7.34219016 -42.77351823 3.42691501 -65.66796875 6.18359375 C-81.26637521 9.72868613 -94.23392231 19.30883482 -102.83984375 32.72265625 C-108.54149054 43.32226026 -110.17304908 52.56042711 -110.08984375 64.47265625 C-110.09757812 65.59542969 -110.1053125 66.71820312 -110.11328125 67.875 C-110.10941406 69.49341797 -110.10941406 69.49341797 -110.10546875 71.14453125 C-110.10321289 72.1200293 -110.10095703 73.09552734 -110.09863281 74.10058594 C-109.83056806 76.81663825 -109.15672912 78.36724138 -107.83984375 80.72265625 C-107.59234375 81.73328125 -107.34484375 82.74390625 -107.08984375 83.78515625 C-105.87456268 88.36736358 -103.43522735 92.28568709 -101.08203125 96.3671875 C-99.83984375 98.72265625 -99.83984375 98.72265625 -99.83984375 100.72265625 C-99.17984375 100.72265625 -98.51984375 100.72265625 -97.83984375 100.72265625 C-96.7922863 101.86842221 -95.80174658 103.06659185 -94.83984375 104.28515625 C-86.80024315 113.6481479 -75.87474252 119.18003364 -63.83984375 121.72265625 C-51.0478327 122.61312269 -37.67468043 123.22287531 -25.83984375 117.72265625 C-24.87175781 117.27535156 -23.90367188 116.82804687 -22.90625 116.3671875 C-16.7930711 113.27327199 -11.75278625 109.48074956 -6.83984375 104.72265625 C-1.80821357 109.02050703 3.18734068 113.35691167 8.16015625 117.72265625 C3.76675973 127.98933022 -7.84998456 133.70621332 -17.640625 137.84570312 C-40.1911747 146.83788502 -65.03058212 146.37210914 -87.43676758 137.19018555 C-107.54271367 128.48155899 -121.35781108 112.6348925 -129.83984375 92.72265625 C-130.70871847 90.0392478 -131.30618781 87.49766716 -131.83984375 84.72265625 C-132.16984375 84.06265625 -132.49984375 83.40265625 -132.83984375 82.72265625 C-135.56600229 62.97271631 -134.87694043 43.79684962 -125.83984375 25.72265625 C-125.17984375 25.72265625 -124.51984375 25.72265625 -123.83984375 25.72265625 C-123.72769531 24.98789063 -123.61554687 24.253125 -123.5 23.49609375 C-121.78847017 16.30564297 -116.45387238 10.94517493 -110.8828125 6.3984375 C-108.84001013 4.76981942 -108.84001013 4.76981942 -107.078125 3.015625 C-79.63417125 -23.3567644 -28.97824455 -23.23839969 0 0 Z " fill="#040404" transform="translate(4127.83984375,1459.27734375)"/>
<path d="M0 0 C42.57 0 85.14 0 129 0 C129 6.27 129 12.54 129 19 C111.51 19 94.02 19 76 19 C76 64.21 76 109.42 76 156 C68.41 156 60.82 156 53 156 C53 111.12 53 66.24 53 20 C35.51 20 18.02 20 0 20 C0 13.4 0 6.8 0 0 Z " fill="#050505" transform="translate(3549,1445)"/>
<path d="M0 0 C7.59 0 15.18 0 23 0 C23 45.21 23 90.42 23 137 C50.72 137 78.44 137 107 137 C107 143.27 107 149.54 107 156 C71.69 156 36.38 156 0 156 C0 104.52 0 53.04 0 0 Z " fill="#020202" transform="translate(5027,1445)"/>
<path d="M0 0 C7.26 0 14.52 0 22 0 C22 51.48 22 102.96 22 156 C14.74 156 7.48 156 0 156 C0 104.52 0 53.04 0 0 Z " fill="#010101" transform="translate(5750,1445)"/>
</svg>
